SplineFontDB: 3.2
FontName: BukanBinaryMonospaceX
FullName: BukanBinary MonospaceX
FamilyName: BukanBinary MonospaceX
Weight: Regular
Copyright: Copyright (c) 2021 Aydi Rainkarnichi. BukanBinary MonospaceX, based on ASCII-Binary Code.
Version: 001
ItalicAngle: 0
UnderlinePosition: 0
UnderlineWidth: 0
Ascent: 1000
Descent: 0
InvalidEm: 0
LayerCount: 2
Layer: 0 0 "Back" 1
Layer: 1 0 "Fore" 0
HasVMetrics: 1
XUID: [1021 267 1285309056 14722095]
FSType: 8
OS2Version: 0
OS2_WeightWidthSlopeOnly: 0
OS2_UseTypoMetrics: 0
CreationTime: 1432480819
ModificationTime: 1618362854
PfmFamily: 49
TTFWeight: 400
TTFWidth: 5
LineGap: 90
VLineGap: 90
Panose: 2 0 5 3 0 0 0 0 0 0
OS2TypoAscent: 0
OS2TypoAOffset: 1
OS2TypoDescent: 0
OS2TypoDOffset: 1
OS2TypoLinegap: 90
OS2WinAscent: 0
OS2WinAOffset: 1
OS2WinDescent: 0
OS2WinDOffset: 1
HheadAscent: 0
HheadAOffset: 1
HheadDescent: 0
HheadDOffset: 1
OS2Vendor: 'PfEd'
MarkAttachClasses: 1
DEI: 91125

StartChar: a
Encoding: 97 97 0
Width: 1600
VWidth: 800
Flags: W
HStem: 0 21G<0 200 250 350 450 550 600 800 800 1000 1000 1200 1200 1400 1450 1550> 0 21G<0 200 250 350 450 550 600 800 800 1000 1000 1200 1200 1400 1450 1550> 180 20G<0 200 250 350 450 550 600 800 800 1000 1000 1200 1200 1400 1450 1550> 180 20G<0 200 250 350 450 550 600 800 800 1000 1000 1200 1200 1400 1450 1550>
VStem: 0 200<0 200> 250 100<0 200> 450 100<0 200> 1450 100<0 200>
LayerCount: 2
Fore
SplineSet
1450 200 m 5xaf
 1550 200 l 5
 1550 0 l 5
 1450 0 l 5
 1450 200 l 5xaf
1200 200 m 1
 1400 200 l 1
 1400 0 l 1
 1200 0 l 1
 1200 200 l 1
1000 200 m 1
 1200 200 l 1
 1200 0 l 1
 1000 0 l 1
 1000 200 l 1
800 200 m 1
 1000 200 l 1
 1000 0 l 1
 800 0 l 1
 800 200 l 1
600 200 m 1
 800 200 l 1
 800 0 l 1
 600 0 l 1
 600 200 l 1
450 200 m 1
 550 200 l 1
 550 0 l 1
 450 0 l 1
 450 200 l 1
250 200 m 1
 350 200 l 1
 350 0 l 1
 250 0 l 1
 250 200 l 1
0 200 m 1
 200 200 l 1
 200 0 l 1
 0 0 l 1
 0 200 l 1
EndSplineSet
EndChar

StartChar: b
Encoding: 98 98 1
Width: 1600
VWidth: 800
Flags: W
HStem: 0 21G<0 200 250 350 450 550 600 800 800 1000 1000 1200 1250 1350 1400 1600> 0 21G<0 200 250 350 450 550 600 800 800 1000 1000 1200 1250 1350 1400 1600> 180 20G<0 200 250 350 450 550 600 800 800 1000 1000 1200 1250 1350 1400 1600> 180 20G<0 200 250 350 450 550 600 800 800 1000 1000 1200 1250 1350 1400 1600>
VStem: 0 200<0 200> 250 100<0 200> 450 100<0 200> 1000 200<0 200> 1250 100<0 200> 1400 200<0 200>
LayerCount: 2
Fore
SplineSet
0 200 m 1xafc0
 200 200 l 1
 200 0 l 1
 0 0 l 1
 0 200 l 1xafc0
250 200 m 1
 350 200 l 1
 350 0 l 1
 250 0 l 1
 250 200 l 1
450 200 m 1
 550 200 l 1
 550 0 l 1
 450 0 l 1
 450 200 l 1
600 200 m 1
 800 200 l 1
 800 0 l 1
 600 0 l 1
 600 200 l 1
800 200 m 1
 1000 200 l 1
 1000 0 l 1
 800 0 l 1
 800 200 l 1
1000 200 m 1
 1200 200 l 1
 1200 0 l 1
 1000 0 l 1
 1000 200 l 1
1250 200 m 1
 1350 200 l 1
 1350 0 l 1
 1250 0 l 1
 1250 200 l 1
1400 200 m 5
 1600 200 l 5
 1600 0 l 5
 1400 0 l 5
 1400 200 l 5
EndSplineSet
EndChar

StartChar: c
Encoding: 99 99 2
Width: 1600
VWidth: 800
Flags: W
HStem: 0 21G<0 200 250 350 450 550 600 800 800 1000 1000 1200 1250 1350 1450 1550> 0 21G<0 200 250 350 450 550 600 800 800 1000 1000 1200 1250 1350 1450 1550> 180 20G<0 200 250 350 450 550 600 800 800 1000 1000 1200 1250 1350 1450 1550> 180 20G<0 200 250 350 450 550 600 800 800 1000 1000 1200 1250 1350 1450 1550>
VStem: 0 200<0 200> 250 100<0 200> 450 100<0 200> 1000 200<0 200> 1250 100<0 200> 1450 100<0 200>
LayerCount: 2
Fore
SplineSet
0 200 m 1xafc0
 200 200 l 1
 200 0 l 1
 0 0 l 1
 0 200 l 1xafc0
250 200 m 1
 350 200 l 1
 350 0 l 1
 250 0 l 1
 250 200 l 1
450 200 m 1
 550 200 l 1
 550 0 l 1
 450 0 l 1
 450 200 l 1
600 200 m 1
 800 200 l 1
 800 0 l 1
 600 0 l 1
 600 200 l 1
800 200 m 1
 1000 200 l 1
 1000 0 l 1
 800 0 l 1
 800 200 l 1
1000 200 m 1
 1200 200 l 1
 1200 0 l 1
 1000 0 l 1
 1000 200 l 1
1250 200 m 1
 1350 200 l 1
 1350 0 l 1
 1250 0 l 1
 1250 200 l 1
1450 200 m 5
 1550 200 l 5
 1550 0 l 5
 1450 0 l 5
 1450 200 l 5
EndSplineSet
EndChar

StartChar: d
Encoding: 100 100 3
Width: 1600
VWidth: 800
Flags: W
HStem: 0 21G<0 200 250 350 450 550 600 800 800 1000 1050 1150 1200 1400 1400 1600> 0 21G<0 200 250 350 450 550 600 800 800 1000 1050 1150 1200 1400 1400 1600> 180 20G<0 200 250 350 450 550 600 800 800 1000 1050 1150 1200 1400 1400 1600> 180 20G<0 200 250 350 450 550 600 800 800 1000 1050 1150 1200 1400 1400 1600>
VStem: 0 200<0 200> 250 100<0 200> 450 100<0 200> 1050 100<0 200>
LayerCount: 2
Fore
SplineSet
0 200 m 1xaf
 200 200 l 1
 200 0 l 1
 0 0 l 1
 0 200 l 1xaf
250 200 m 1
 350 200 l 1
 350 0 l 1
 250 0 l 1
 250 200 l 1
450 200 m 1
 550 200 l 1
 550 0 l 1
 450 0 l 1
 450 200 l 1
600 200 m 1
 800 200 l 1
 800 0 l 1
 600 0 l 1
 600 200 l 1
800 200 m 1
 1000 200 l 1
 1000 0 l 1
 800 0 l 1
 800 200 l 1
1050 200 m 1
 1150 200 l 1
 1150 0 l 1
 1050 0 l 1
 1050 200 l 1
1200 200 m 5
 1400 200 l 5
 1400 0 l 5
 1200 0 l 5
 1200 200 l 5
1400 200 m 5
 1600 200 l 5
 1600 0 l 5
 1400 0 l 5
 1400 200 l 5
EndSplineSet
EndChar

StartChar: e
Encoding: 101 101 4
Width: 1600
VWidth: 800
Flags: W
HStem: 0 21G<0 200 250 350 450 550 600 800 800 1000 1050 1150 1200 1400 1450 1550> 0 21G<0 200 250 350 450 550 600 800 800 1000 1050 1150 1200 1400 1450 1550> 180 20G<0 200 250 350 450 550 600 800 800 1000 1050 1150 1200 1400 1450 1550> 180 20G<0 200 250 350 450 550 600 800 800 1000 1050 1150 1200 1400 1450 1550>
VStem: 0 200<0 200> 250 100<0 200> 450 100<0 200> 1050 100<0 200> 1200 200<0 200> 1450 100<0 200>
LayerCount: 2
Fore
SplineSet
0 200 m 1xafc0
 200 200 l 1
 200 0 l 1
 0 0 l 1
 0 200 l 1xafc0
250 200 m 1
 350 200 l 1
 350 0 l 1
 250 0 l 1
 250 200 l 1
450 200 m 1
 550 200 l 1
 550 0 l 1
 450 0 l 1
 450 200 l 1
600 200 m 1
 800 200 l 1
 800 0 l 1
 600 0 l 1
 600 200 l 1
800 200 m 1
 1000 200 l 1
 1000 0 l 1
 800 0 l 1
 800 200 l 1
1050 200 m 1
 1150 200 l 1
 1150 0 l 1
 1050 0 l 1
 1050 200 l 1
1200 200 m 1
 1400 200 l 1
 1400 0 l 1
 1200 0 l 1
 1200 200 l 1
1450 200 m 5
 1550 200 l 5
 1550 0 l 5
 1450 0 l 5
 1450 200 l 5
EndSplineSet
EndChar

StartChar: f
Encoding: 102 102 5
Width: 1600
VWidth: 800
Flags: W
HStem: 0 21G<0 200 250 350 450 550 600 800 800 1000 1050 1150 1250 1350 1400 1600> 0 21G<0 200 250 350 450 550 600 800 800 1000 1050 1150 1250 1350 1400 1600> 180 20G<0 200 250 350 450 550 600 800 800 1000 1050 1150 1250 1350 1400 1600> 180 20G<0 200 250 350 450 550 600 800 800 1000 1050 1150 1250 1350 1400 1600>
VStem: 0 200<0 200> 250 100<0 200> 450 100<0 200> 1050 100<0 200> 1250 100<0 200> 1400 200<0 200>
LayerCount: 2
Fore
SplineSet
0 200 m 1xafc0
 200 200 l 1
 200 0 l 1
 0 0 l 1
 0 200 l 1xafc0
250 200 m 1
 350 200 l 1
 350 0 l 1
 250 0 l 1
 250 200 l 1
450 200 m 1
 550 200 l 1
 550 0 l 1
 450 0 l 1
 450 200 l 1
600 200 m 1
 800 200 l 1
 800 0 l 1
 600 0 l 1
 600 200 l 1
800 200 m 1
 1000 200 l 1
 1000 0 l 1
 800 0 l 1
 800 200 l 1
1050 200 m 1
 1150 200 l 1
 1150 0 l 1
 1050 0 l 1
 1050 200 l 1
1400 200 m 1
 1600 200 l 1
 1600 0 l 1
 1400 0 l 1
 1400 200 l 1
1250 200 m 1
 1350 200 l 1
 1350 0 l 1
 1250 0 l 1
 1250 200 l 1
EndSplineSet
EndChar

StartChar: h
Encoding: 104 104 6
Width: 1600
VWidth: 800
Flags: W
HStem: 0 21G<0 200 250 350 450 550 600 800 850 950 1000 1200 1200 1400 1400 1600> 0 21G<0 200 250 350 450 550 600 800 850 950 1000 1200 1200 1400 1400 1600> 180 20G<0 200 250 350 450 550 600 800 850 950 1000 1200 1200 1400 1400 1600> 180 20G<0 200 250 350 450 550 600 800 850 950 1000 1200 1200 1400 1400 1600>
VStem: 0 200<0 200> 250 100<0 200> 450 100<0 200> 600 200<0 200> 850 100<0 200> 1400 200<0 200>
LayerCount: 2
Fore
SplineSet
0 200 m 1xafc0
 200 200 l 1
 200 0 l 1
 0 0 l 1
 0 200 l 1xafc0
250 200 m 1
 350 200 l 1
 350 0 l 1
 250 0 l 1
 250 200 l 1
450 200 m 1
 550 200 l 1
 550 0 l 1
 450 0 l 1
 450 200 l 1
600 200 m 1
 800 200 l 1
 800 0 l 1
 600 0 l 1
 600 200 l 1
1400 200 m 5
 1600 200 l 5
 1600 0 l 5
 1400 0 l 5
 1400 200 l 5
850 200 m 1
 950 200 l 1
 950 0 l 1
 850 0 l 1
 850 200 l 1
1000 200 m 5
 1200 200 l 5
 1200 0 l 5
 1000 0 l 5
 1000 200 l 5
1200 200 m 5
 1400 200 l 5
 1400 0 l 5
 1200 0 l 5
 1200 200 l 5
EndSplineSet
EndChar

StartChar: i
Encoding: 105 105 7
Width: 1600
VWidth: 800
Flags: W
HStem: 0 21G<0 200 250 350 450 550 600 800 850 950 1000 1200 1200 1400 1450 1550> 0 21G<0 200 250 350 450 550 600 800 850 950 1000 1200 1200 1400 1450 1550> 180 20G<0 200 250 350 450 550 600 800 850 950 1000 1200 1200 1400 1450 1550> 180 20G<0 200 250 350 450 550 600 800 850 950 1000 1200 1200 1400 1450 1550>
VStem: 0 200<0 200> 250 100<0 200> 450 100<0 200> 600 200<0 200> 850 100<0 200> 1450 100<0 200>
LayerCount: 2
Fore
SplineSet
0 200 m 1xafc0
 200 200 l 1
 200 0 l 1
 0 0 l 1
 0 200 l 1xafc0
250 200 m 1
 350 200 l 1
 350 0 l 1
 250 0 l 1
 250 200 l 1
450 200 m 1
 550 200 l 1
 550 0 l 1
 450 0 l 1
 450 200 l 1
600 200 m 1
 800 200 l 1
 800 0 l 1
 600 0 l 1
 600 200 l 1
850 200 m 1
 950 200 l 1
 950 0 l 1
 850 0 l 1
 850 200 l 1
1000 200 m 1
 1200 200 l 1
 1200 0 l 1
 1000 0 l 1
 1000 200 l 1
1200 200 m 1
 1400 200 l 1
 1400 0 l 1
 1200 0 l 1
 1200 200 l 1
1450 200 m 5
 1550 200 l 5
 1550 0 l 5
 1450 0 l 5
 1450 200 l 5
EndSplineSet
EndChar

StartChar: j
Encoding: 106 106 8
Width: 1600
VWidth: 800
Flags: W
HStem: 0 21G<0 200 250 350 450 550 600 800 850 950 1000 1200 1250 1350 1400 1600> 0 21G<0 200 250 350 450 550 600 800 850 950 1000 1200 1250 1350 1400 1600> 180 20G<0 200 250 350 450 550 600 800 850 950 1000 1200 1250 1350 1400 1600> 180 20G<0 200 250 350 450 550 600 800 850 950 1000 1200 1250 1350 1400 1600>
VStem: 0 200<0 200> 250 100<0 200> 450 100<0 200> 600 200<0 200> 850 100<0 200> 1000 200<0 200> 1250 100<0 200> 1400 200<0 200>
LayerCount: 2
Fore
SplineSet
0 200 m 1xaff0
 200 200 l 1
 200 0 l 1
 0 0 l 1
 0 200 l 1xaff0
250 200 m 1
 350 200 l 1
 350 0 l 1
 250 0 l 1
 250 200 l 1
450 200 m 1
 550 200 l 1
 550 0 l 1
 450 0 l 1
 450 200 l 1
600 200 m 1
 800 200 l 1
 800 0 l 1
 600 0 l 1
 600 200 l 1
850 200 m 1
 950 200 l 1
 950 0 l 1
 850 0 l 1
 850 200 l 1
1000 200 m 1
 1200 200 l 1
 1200 0 l 1
 1000 0 l 1
 1000 200 l 1
1400 200 m 1
 1600 200 l 1
 1600 0 l 1
 1400 0 l 1
 1400 200 l 1
1250 200 m 5
 1350 200 l 5
 1350 0 l 5
 1250 0 l 5
 1250 200 l 5
EndSplineSet
EndChar

StartChar: k
Encoding: 107 107 9
Width: 1600
VWidth: 800
Flags: W
HStem: 0 21G<0 200 250 350 450 550 600 800 850 950 1000 1200 1250 1350 1450 1550> 0 21G<0 200 250 350 450 550 600 800 850 950 1000 1200 1250 1350 1450 1550> 180 20G<0 200 250 350 450 550 600 800 850 950 1000 1200 1250 1350 1450 1550> 180 20G<0 200 250 350 450 550 600 800 850 950 1000 1200 1250 1350 1450 1550>
VStem: 0 200<0 200> 250 100<0 200> 450 100<0 200> 600 200<0 200> 850 100<0 200> 1000 200<0 200> 1250 100<0 200> 1450 100<0 200>
LayerCount: 2
Fore
SplineSet
0 200 m 1xaff0
 200 200 l 1
 200 0 l 1
 0 0 l 1
 0 200 l 1xaff0
250 200 m 1
 350 200 l 1
 350 0 l 1
 250 0 l 1
 250 200 l 1
450 200 m 1
 550 200 l 1
 550 0 l 1
 450 0 l 1
 450 200 l 1
600 200 m 1
 800 200 l 1
 800 0 l 1
 600 0 l 1
 600 200 l 1
850 200 m 1
 950 200 l 1
 950 0 l 1
 850 0 l 1
 850 200 l 1
1000 200 m 1
 1200 200 l 1
 1200 0 l 1
 1000 0 l 1
 1000 200 l 1
1250 200 m 1
 1350 200 l 1
 1350 0 l 1
 1250 0 l 1
 1250 200 l 1
1450 200 m 5
 1550 200 l 5
 1550 0 l 5
 1450 0 l 5
 1450 200 l 5
EndSplineSet
EndChar

StartChar: l
Encoding: 108 108 10
Width: 1600
VWidth: 800
Flags: W
HStem: 0 21G<0 200 250 350 450 550 600 800 850 950 1050 1150 1200 1400 1400 1600> 0 21G<0 200 250 350 450 550 600 800 850 950 1050 1150 1200 1400 1400 1600> 180 20G<0 200 250 350 450 550 600 800 850 950 1050 1150 1200 1400 1400 1600> 180 20G<0 200 250 350 450 550 600 800 850 950 1050 1150 1200 1400 1400 1600>
VStem: 0 200<0 200> 250 100<0 200> 450 100<0 200> 600 200<0 200> 850 100<0 200> 1050 100<0 200>
LayerCount: 2
Fore
SplineSet
0 200 m 1xafc0
 200 200 l 1
 200 0 l 1
 0 0 l 1
 0 200 l 1xafc0
250 200 m 1
 350 200 l 1
 350 0 l 1
 250 0 l 1
 250 200 l 1
450 200 m 1
 550 200 l 1
 550 0 l 1
 450 0 l 1
 450 200 l 1
600 200 m 1
 800 200 l 1
 800 0 l 1
 600 0 l 1
 600 200 l 1
850 200 m 1
 950 200 l 1
 950 0 l 1
 850 0 l 1
 850 200 l 1
1200 200 m 5
 1400 200 l 5
 1400 0 l 5
 1200 0 l 5
 1200 200 l 5
1050 200 m 1
 1150 200 l 1
 1150 0 l 1
 1050 0 l 1
 1050 200 l 1
1400 200 m 5
 1600 200 l 5
 1600 0 l 5
 1400 0 l 5
 1400 200 l 5
EndSplineSet
EndChar

StartChar: m
Encoding: 109 109 11
Width: 1600
VWidth: 800
Flags: W
HStem: 0 21G<0 200 250 350 450 550 600 800 850 950 1050 1150 1200 1400 1450 1550> 0 21G<0 200 250 350 450 550 600 800 850 950 1050 1150 1200 1400 1450 1550> 180 20G<0 200 250 350 450 550 600 800 850 950 1050 1150 1200 1400 1450 1550> 180 20G<0 200 250 350 450 550 600 800 850 950 1050 1150 1200 1400 1450 1550>
VStem: 0 200<0 200> 250 100<0 200> 450 100<0 200> 600 200<0 200> 850 100<0 200> 1050 100<0 200> 1200 200<0 200> 1450 100<0 200>
LayerCount: 2
Fore
SplineSet
0 200 m 1xaff0
 200 200 l 1
 200 0 l 1
 0 0 l 1
 0 200 l 1xaff0
250 200 m 1
 350 200 l 1
 350 0 l 1
 250 0 l 1
 250 200 l 1
450 200 m 1
 550 200 l 1
 550 0 l 1
 450 0 l 1
 450 200 l 1
600 200 m 1
 800 200 l 1
 800 0 l 1
 600 0 l 1
 600 200 l 1
850 200 m 1
 950 200 l 1
 950 0 l 1
 850 0 l 1
 850 200 l 1
1200 200 m 1
 1400 200 l 1
 1400 0 l 1
 1200 0 l 1
 1200 200 l 1
1050 200 m 1
 1150 200 l 1
 1150 0 l 1
 1050 0 l 1
 1050 200 l 1
1450 200 m 5
 1550 200 l 5
 1550 0 l 5
 1450 0 l 5
 1450 200 l 5
EndSplineSet
EndChar

StartChar: n
Encoding: 110 110 12
Width: 1600
VWidth: 800
Flags: W
HStem: 0 21G<0 200 250 350 450 550 600 800 850 950 1050 1150 1250 1350 1400 1600> 0 21G<0 200 250 350 450 550 600 800 850 950 1050 1150 1250 1350 1400 1600> 180 20G<0 200 250 350 450 550 600 800 850 950 1050 1150 1250 1350 1400 1600> 180 20G<0 200 250 350 450 550 600 800 850 950 1050 1150 1250 1350 1400 1600>
VStem: 0 200<0 200> 250 100<0 200> 450 100<0 200> 600 200<0 200> 850 100<0 200> 1050 100<0 200> 1250 100<0 200> 1400 200<0 200>
LayerCount: 2
Fore
SplineSet
0 200 m 1xaff0
 200 200 l 1
 200 0 l 1
 0 0 l 1
 0 200 l 1xaff0
250 200 m 1
 350 200 l 1
 350 0 l 1
 250 0 l 1
 250 200 l 1
450 200 m 1
 550 200 l 1
 550 0 l 1
 450 0 l 1
 450 200 l 1
600 200 m 1
 800 200 l 1
 800 0 l 1
 600 0 l 1
 600 200 l 1
850 200 m 1
 950 200 l 1
 950 0 l 1
 850 0 l 1
 850 200 l 1
1400 200 m 5
 1600 200 l 5
 1600 0 l 5
 1400 0 l 5
 1400 200 l 5
1050 200 m 1
 1150 200 l 1
 1150 0 l 1
 1050 0 l 1
 1050 200 l 1
1250 200 m 1
 1350 200 l 1
 1350 0 l 1
 1250 0 l 1
 1250 200 l 1
EndSplineSet
EndChar

StartChar: o
Encoding: 111 111 13
Width: 1600
VWidth: 800
Flags: W
HStem: 0 21G<0 200 250 350 450 550 600 800 850 950 1050 1150 1250 1350 1450 1550> 0 21G<0 200 250 350 450 550 600 800 850 950 1050 1150 1250 1350 1450 1550> 180 20G<0 200 250 350 450 550 600 800 850 950 1050 1150 1250 1350 1450 1550> 180 20G<0 200 250 350 450 550 600 800 850 950 1050 1150 1250 1350 1450 1550>
VStem: 0 200<0 200> 250 100<0 200> 450 100<0 200> 600 200<0 200> 850 100<0 200> 1050 100<0 200> 1250 100<0 200> 1450 100<0 200>
LayerCount: 2
Fore
SplineSet
0 200 m 1xaff0
 200 200 l 1
 200 0 l 1
 0 0 l 1
 0 200 l 1xaff0
250 200 m 1
 350 200 l 1
 350 0 l 1
 250 0 l 1
 250 200 l 1
450 200 m 1
 550 200 l 1
 550 0 l 1
 450 0 l 1
 450 200 l 1
600 200 m 1
 800 200 l 1
 800 0 l 1
 600 0 l 1
 600 200 l 1
850 200 m 1
 950 200 l 1
 950 0 l 1
 850 0 l 1
 850 200 l 1
1050 200 m 1
 1150 200 l 1
 1150 0 l 1
 1050 0 l 1
 1050 200 l 1
1250 200 m 1
 1350 200 l 1
 1350 0 l 1
 1250 0 l 1
 1250 200 l 1
1450 200 m 5
 1550 200 l 5
 1550 0 l 5
 1450 0 l 5
 1450 200 l 5
EndSplineSet
EndChar

StartChar: p
Encoding: 112 112 14
Width: 1600
VWidth: 800
Flags: W
HStem: 0 21G<0 200 250 350 450 550 650 750 800 1000 1000 1200 1200 1400 1400 1600> 0 21G<0 200 250 350 450 550 650 750 800 1000 1000 1200 1200 1400 1400 1600> 180 20G<0 200 250 350 450 550 650 750 800 1000 1000 1200 1200 1400 1400 1600> 180 20G<0 200 250 350 450 550 650 750 800 1000 1000 1200 1200 1400 1400 1600>
VStem: 0 200<0 200> 250 100<0 200> 450 100<0 200> 650 100<0 200> 800 200<0 200>
LayerCount: 2
Fore
SplineSet
0 200 m 1xaf80
 200 200 l 1
 200 0 l 1
 0 0 l 1
 0 200 l 1xaf80
250 200 m 1
 350 200 l 1
 350 0 l 1
 250 0 l 1
 250 200 l 1
450 200 m 1
 550 200 l 1
 550 0 l 1
 450 0 l 1
 450 200 l 1
650 200 m 1
 750 200 l 1
 750 0 l 1
 650 0 l 1
 650 200 l 1
800 200 m 5
 1000 200 l 5
 1000 0 l 5
 800 0 l 5
 800 200 l 5
1000 200 m 5
 1200 200 l 5
 1200 0 l 5
 1000 0 l 5
 1000 200 l 5
1200 200 m 5
 1400 200 l 5
 1400 0 l 5
 1200 0 l 5
 1200 200 l 5
1400 200 m 5
 1600 200 l 5
 1600 0 l 5
 1400 0 l 5
 1400 200 l 5
EndSplineSet
EndChar

StartChar: q
Encoding: 113 113 15
Width: 1600
VWidth: 800
Flags: W
HStem: 0 21G<0 200 250 350 450 550 650 750 800 1000 1000 1200 1200 1400 1450 1550> 0 21G<0 200 250 350 450 550 650 750 800 1000 1000 1200 1200 1400 1450 1550> 180 20G<0 200 250 350 450 550 650 750 800 1000 1000 1200 1200 1400 1450 1550> 180 20G<0 200 250 350 450 550 650 750 800 1000 1000 1200 1200 1400 1450 1550>
VStem: 0 200<0 200> 250 100<0 200> 450 100<0 200> 650 100<0 200> 800 200<0 200> 1450 100<0 200>
LayerCount: 2
Fore
SplineSet
0 200 m 1xafc0
 200 200 l 1
 200 0 l 1
 0 0 l 1
 0 200 l 1xafc0
250 200 m 1
 350 200 l 1
 350 0 l 1
 250 0 l 1
 250 200 l 1
450 200 m 1
 550 200 l 1
 550 0 l 1
 450 0 l 1
 450 200 l 1
650 200 m 1
 750 200 l 1
 750 0 l 1
 650 0 l 1
 650 200 l 1
800 200 m 1
 1000 200 l 1
 1000 0 l 1
 800 0 l 1
 800 200 l 1
1000 200 m 1
 1200 200 l 1
 1200 0 l 1
 1000 0 l 1
 1000 200 l 1
1200 200 m 1
 1400 200 l 1
 1400 0 l 1
 1200 0 l 1
 1200 200 l 1
1450 200 m 5
 1550 200 l 5
 1550 0 l 5
 1450 0 l 5
 1450 200 l 5
EndSplineSet
EndChar

StartChar: r
Encoding: 114 114 16
Width: 1600
VWidth: 800
Flags: W
HStem: 0 21G<0 200 250 350 450 550 650 750 800 1000 1000 1200 1250 1350 1400 1600> 0 21G<0 200 250 350 450 550 650 750 800 1000 1000 1200 1250 1350 1400 1600> 180 20G<0 200 250 350 450 550 650 750 800 1000 1000 1200 1250 1350 1400 1600> 180 20G<0 200 250 350 450 550 650 750 800 1000 1000 1200 1250 1350 1400 1600>
VStem: 0 200<0 200> 250 100<0 200> 450 100<0 200> 650 100<0 200> 800 200<0 200> 1000 200<0 200> 1250 100<0 200> 1400 200<0 200>
LayerCount: 2
Fore
SplineSet
0 200 m 1xaf30
 200 200 l 1
 200 0 l 1
 0 0 l 1
 0 200 l 1xaf30
250 200 m 1
 350 200 l 1
 350 0 l 1
 250 0 l 1
 250 200 l 1
450 200 m 1
 550 200 l 1
 550 0 l 1
 450 0 l 1
 450 200 l 1
650 200 m 1
 750 200 l 1
 750 0 l 1
 650 0 l 1
 650 200 l 1
800 200 m 1xafb0
 1000 200 l 1
 1000 0 l 1
 800 0 l 1
 800 200 l 1xafb0
1000 200 m 1
 1200 200 l 1
 1200 0 l 1xaf70
 1000 0 l 1
 1000 200 l 1
1400 200 m 5
 1600 200 l 5
 1600 0 l 5
 1400 0 l 5
 1400 200 l 5
1250 200 m 1
 1350 200 l 1
 1350 0 l 1
 1250 0 l 1
 1250 200 l 1
EndSplineSet
EndChar

StartChar: s
Encoding: 115 115 17
Width: 1600
VWidth: 800
Flags: W
HStem: 0 21G<0 200 250 350 450 550 650 750 800 1000 1000 1200 1250 1350 1450 1550> 0 21G<0 200 250 350 450 550 650 750 800 1000 1000 1200 1250 1350 1450 1550> 180 20G<0 200 250 350 450 550 650 750 800 1000 1000 1200 1250 1350 1450 1550> 180 20G<0 200 250 350 450 550 650 750 800 1000 1000 1200 1250 1350 1450 1550>
VStem: 0 200<0 200> 250 100<0 200> 450 100<0 200> 650 100<0 200> 800 200<0 200> 1000 200<0 200> 1250 100<0 200> 1450 100<0 200>
LayerCount: 2
Fore
SplineSet
0 200 m 1xaf30
 200 200 l 1
 200 0 l 1
 0 0 l 1
 0 200 l 1xaf30
250 200 m 1
 350 200 l 1
 350 0 l 1
 250 0 l 1
 250 200 l 1
450 200 m 1
 550 200 l 1
 550 0 l 1
 450 0 l 1
 450 200 l 1
650 200 m 1
 750 200 l 1
 750 0 l 1
 650 0 l 1
 650 200 l 1
800 200 m 1xafb0
 1000 200 l 1
 1000 0 l 1
 800 0 l 1
 800 200 l 1xafb0
1000 200 m 1
 1200 200 l 1
 1200 0 l 1xaf70
 1000 0 l 1
 1000 200 l 1
1250 200 m 1
 1350 200 l 1
 1350 0 l 1
 1250 0 l 1
 1250 200 l 1
1450 200 m 5
 1550 200 l 5
 1550 0 l 5
 1450 0 l 5
 1450 200 l 5
EndSplineSet
EndChar

StartChar: t
Encoding: 116 116 18
Width: 1600
VWidth: 800
Flags: W
HStem: 0 21G<0 200 250 350 450 550 650 750 800 1000 1050 1150 1200 1400 1400 1600> 0 21G<0 200 250 350 450 550 650 750 800 1000 1050 1150 1200 1400 1400 1600> 180 20G<0 200 250 350 450 550 650 750 800 1000 1050 1150 1200 1400 1400 1600> 180 20G<0 200 250 350 450 550 650 750 800 1000 1050 1150 1200 1400 1400 1600>
VStem: 0 200<0 200> 250 100<0 200> 450 100<0 200> 650 100<0 200> 800 200<0 200> 1050 100<0 200>
LayerCount: 2
Fore
SplineSet
0 200 m 1xafc0
 200 200 l 1
 200 0 l 1
 0 0 l 1
 0 200 l 1xafc0
250 200 m 1
 350 200 l 1
 350 0 l 1
 250 0 l 1
 250 200 l 1
450 200 m 1
 550 200 l 1
 550 0 l 1
 450 0 l 1
 450 200 l 1
650 200 m 1
 750 200 l 1
 750 0 l 1
 650 0 l 1
 650 200 l 1
800 200 m 1
 1000 200 l 1
 1000 0 l 1
 800 0 l 1
 800 200 l 1
1200 200 m 5
 1400 200 l 5
 1400 0 l 5
 1200 0 l 5
 1200 200 l 5
1400 200 m 5
 1600 200 l 5
 1600 0 l 5
 1400 0 l 5
 1400 200 l 5
1050 200 m 1
 1150 200 l 1
 1150 0 l 1
 1050 0 l 1
 1050 200 l 1
EndSplineSet
EndChar

StartChar: u
Encoding: 117 117 19
Width: 1600
VWidth: 800
Flags: W
HStem: 0 21G<0 200 250 350 450 550 650 750 800 1000 1050 1150 1200 1400 1450 1550> 0 21G<0 200 250 350 450 550 650 750 800 1000 1050 1150 1200 1400 1450 1550> 180 20G<0 200 250 350 450 550 650 750 800 1000 1050 1150 1200 1400 1450 1550> 180 20G<0 200 250 350 450 550 650 750 800 1000 1050 1150 1200 1400 1450 1550>
VStem: 0 200<0 200> 250 100<0 200> 450 100<0 200> 650 100<0 200> 800 200<0 200> 1050 100<0 200> 1200 200<0 200> 1450 100<0 200>
LayerCount: 2
Fore
SplineSet
0 200 m 1xaff0
 200 200 l 1
 200 0 l 1
 0 0 l 1
 0 200 l 1xaff0
250 200 m 1
 350 200 l 1
 350 0 l 1
 250 0 l 1
 250 200 l 1
450 200 m 1
 550 200 l 1
 550 0 l 1
 450 0 l 1
 450 200 l 1
650 200 m 1
 750 200 l 1
 750 0 l 1
 650 0 l 1
 650 200 l 1
800 200 m 1
 1000 200 l 1
 1000 0 l 1
 800 0 l 1
 800 200 l 1
1200 200 m 1
 1400 200 l 1
 1400 0 l 1
 1200 0 l 1
 1200 200 l 1
1050 200 m 1
 1150 200 l 1
 1150 0 l 1
 1050 0 l 1
 1050 200 l 1
1450 200 m 5
 1550 200 l 5
 1550 0 l 5
 1450 0 l 5
 1450 200 l 5
EndSplineSet
EndChar

StartChar: v
Encoding: 118 118 20
Width: 1600
VWidth: 800
Flags: W
HStem: 0 21G<0 200 250 350 450 550 650 750 800 1000 1050 1150 1250 1350 1400 1600> 0 21G<0 200 250 350 450 550 650 750 800 1000 1050 1150 1250 1350 1400 1600> 180 20G<0 200 250 350 450 550 650 750 800 1000 1050 1150 1250 1350 1400 1600> 180 20G<0 200 250 350 450 550 650 750 800 1000 1050 1150 1250 1350 1400 1600>
VStem: 0 200<0 200> 250 100<0 200> 450 100<0 200> 650 100<0 200> 800 200<0 200> 1050 100<0 200> 1250 100<0 200> 1400 200<0 200>
LayerCount: 2
Fore
SplineSet
0 200 m 1xaff0
 200 200 l 1
 200 0 l 1
 0 0 l 1
 0 200 l 1xaff0
250 200 m 1
 350 200 l 1
 350 0 l 1
 250 0 l 1
 250 200 l 1
450 200 m 1
 550 200 l 1
 550 0 l 1
 450 0 l 1
 450 200 l 1
650 200 m 1
 750 200 l 1
 750 0 l 1
 650 0 l 1
 650 200 l 1
800 200 m 1
 1000 200 l 1
 1000 0 l 1
 800 0 l 1
 800 200 l 1
1400 200 m 5
 1600 200 l 5
 1600 0 l 5
 1400 0 l 5
 1400 200 l 5
1050 200 m 1
 1150 200 l 1
 1150 0 l 1
 1050 0 l 1
 1050 200 l 1
1250 200 m 1
 1350 200 l 1
 1350 0 l 1
 1250 0 l 1
 1250 200 l 1
EndSplineSet
EndChar

StartChar: w
Encoding: 119 119 21
Width: 1600
VWidth: 800
Flags: W
HStem: 0 21G<0 200 250 350 450 550 650 750 800 1000 1050 1150 1250 1350 1450 1550> 0 21G<0 200 250 350 450 550 650 750 800 1000 1050 1150 1250 1350 1450 1550> 180 20G<0 200 250 350 450 550 650 750 800 1000 1050 1150 1250 1350 1450 1550> 180 20G<0 200 250 350 450 550 650 750 800 1000 1050 1150 1250 1350 1450 1550>
VStem: 0 200<0 200> 250 100<0 200> 450 100<0 200> 650 100<0 200> 800 200<0 200> 1050 100<0 200> 1250 100<0 200> 1450 100<0 200>
LayerCount: 2
Fore
SplineSet
0 200 m 1xaff0
 200 200 l 1
 200 0 l 1
 0 0 l 1
 0 200 l 1xaff0
250 200 m 1
 350 200 l 1
 350 0 l 1
 250 0 l 1
 250 200 l 1
450 200 m 1
 550 200 l 1
 550 0 l 1
 450 0 l 1
 450 200 l 1
650 200 m 1
 750 200 l 1
 750 0 l 1
 650 0 l 1
 650 200 l 1
800 200 m 1
 1000 200 l 1
 1000 0 l 1
 800 0 l 1
 800 200 l 1
1050 200 m 1
 1150 200 l 1
 1150 0 l 1
 1050 0 l 1
 1050 200 l 1
1250 200 m 1
 1350 200 l 1
 1350 0 l 1
 1250 0 l 1
 1250 200 l 1
1450 200 m 5
 1550 200 l 5
 1550 0 l 5
 1450 0 l 5
 1450 200 l 5
EndSplineSet
EndChar

StartChar: x
Encoding: 120 120 22
Width: 1600
VWidth: 800
Flags: W
HStem: 0 21G<0 200 250 350 450 550 650 750 850 950 1000 1200 1200 1400 1400 1600> 0 21G<0 200 250 350 450 550 650 750 850 950 1000 1200 1200 1400 1400 1600> 180 20G<0 200 250 350 450 550 650 750 850 950 1000 1200 1200 1400 1400 1600> 180 20G<0 200 250 350 450 550 650 750 850 950 1000 1200 1200 1400 1400 1600>
VStem: 0 200<0 200> 250 100<0 200> 450 100<0 200> 650 100<0 200> 850 100<0 200> 1000 200<0 200> 1200 200<0 200> 1400 200<0 200>
LayerCount: 2
Fore
SplineSet
0 200 m 1xaf80
 200 200 l 1
 200 0 l 1
 0 0 l 1
 0 200 l 1xaf80
250 200 m 1
 350 200 l 1
 350 0 l 1
 250 0 l 1
 250 200 l 1
450 200 m 1
 550 200 l 1
 550 0 l 1
 450 0 l 1
 450 200 l 1
650 200 m 1
 750 200 l 1
 750 0 l 1
 650 0 l 1
 650 200 l 1
1400 200 m 5xafa0
 1600 200 l 5
 1600 0 l 5xaf90
 1400 0 l 5
 1400 200 l 5xafa0
1200 200 m 5xafc0
 1400 200 l 5
 1400 0 l 5xafa0
 1200 0 l 5
 1200 200 l 5xafc0
1000 200 m 5xafc0
 1200 200 l 5
 1200 0 l 5
 1000 0 l 5
 1000 200 l 5xafc0
850 200 m 1
 950 200 l 1
 950 0 l 1
 850 0 l 1
 850 200 l 1
EndSplineSet
EndChar

StartChar: y
Encoding: 121 121 23
Width: 1600
VWidth: 800
Flags: W
HStem: 0 21G<0 200 250 350 450 550 650 750 850 950 1000 1200 1200 1400 1450 1550> 0 21G<0 200 250 350 450 550 650 750 850 950 1000 1200 1200 1400 1450 1550> 180 20G<0 200 250 350 450 550 650 750 850 950 1000 1200 1200 1400 1450 1550> 180 20G<0 200 250 350 450 550 650 750 850 950 1000 1200 1200 1400 1450 1550>
VStem: 0 200<0 200> 250 100<0 200> 450 100<0 200> 650 100<0 200> 850 100<0 200> 1000 200<0 200> 1200 200<0 200> 1450 100<0 200>
LayerCount: 2
Fore
SplineSet
0 200 m 1xaf90
 200 200 l 1
 200 0 l 1
 0 0 l 1
 0 200 l 1xaf90
250 200 m 1
 350 200 l 1
 350 0 l 1
 250 0 l 1
 250 200 l 1
450 200 m 1
 550 200 l 1
 550 0 l 1
 450 0 l 1
 450 200 l 1
650 200 m 1
 750 200 l 1
 750 0 l 1
 650 0 l 1
 650 200 l 1
1200 200 m 1xafd0
 1400 200 l 1
 1400 0 l 1xafb0
 1200 0 l 1
 1200 200 l 1xafd0
1000 200 m 1xafd0
 1200 200 l 1
 1200 0 l 1
 1000 0 l 1
 1000 200 l 1xafd0
850 200 m 1
 950 200 l 1
 950 0 l 1
 850 0 l 1
 850 200 l 1
1450 200 m 1
 1550 200 l 5
 1550 0 l 5
 1450 0 l 1
 1450 200 l 1
EndSplineSet
EndChar

StartChar: A
Encoding: 65 65 24
Width: 1600
VWidth: 800
Flags: W
HStem: 0 21G<0 200 250 350 400 600 600 800 800 1000 1000 1200 1200 1400 1450 1550> 0 21G<0 200 250 350 400 600 600 800 800 1000 1000 1200 1200 1400 1450 1550> 180 20G<0 200 250 350 400 600 600 800 800 1000 1000 1200 1200 1400 1450 1550> 180 20G<0 200 250 350 400 600 600 800 800 1000 1000 1200 1200 1400 1450 1550>
VStem: 0 200<0 200> 250 100<0 200> 1450 100<0 200>
LayerCount: 2
Fore
SplineSet
0 200 m 1xae
 200 200 l 1
 200 0 l 1
 0 0 l 1
 0 200 l 1xae
250 200 m 1
 350 200 l 1
 350 0 l 1
 250 0 l 1
 250 200 l 1
400 200 m 1
 600 200 l 1
 600 0 l 1
 400 0 l 1
 400 200 l 1
600 200 m 1
 800 200 l 1
 800 0 l 1
 600 0 l 1
 600 200 l 1
800 200 m 1
 1000 200 l 1
 1000 0 l 1
 800 0 l 1
 800 200 l 1
1000 200 m 1
 1200 200 l 1
 1200 0 l 1
 1000 0 l 1
 1000 200 l 1
1200 200 m 1
 1400 200 l 1
 1400 0 l 1
 1200 0 l 1
 1200 200 l 1
1450 200 m 5
 1550 200 l 5
 1550 0 l 5
 1450 0 l 5
 1450 200 l 5
EndSplineSet
EndChar

StartChar: B
Encoding: 66 66 25
Width: 1600
VWidth: 800
Flags: W
HStem: 0 21G<0 200 250 350 400 600 600 800 800 1000 1000 1200 1250 1350 1400 1600> 0 21G<0 200 250 350 400 600 600 800 800 1000 1000 1200 1250 1350 1400 1600> 180 20G<0 200 250 350 400 600 600 800 800 1000 1000 1200 1250 1350 1400 1600> 180 20G<0 200 250 350 400 600 600 800 800 1000 1000 1200 1250 1350 1400 1600>
VStem: 0 200<0 200> 250 100<0 200> 1000 200<0 200> 1250 100<0 200> 1400 200<0 200>
LayerCount: 2
Fore
SplineSet
0 200 m 1xaf80
 200 200 l 1
 200 0 l 1
 0 0 l 1
 0 200 l 1xaf80
250 200 m 1
 350 200 l 1
 350 0 l 1
 250 0 l 1
 250 200 l 1
400 200 m 1
 600 200 l 1
 600 0 l 1
 400 0 l 1
 400 200 l 1
600 200 m 1
 800 200 l 1
 800 0 l 1
 600 0 l 1
 600 200 l 1
800 200 m 1
 1000 200 l 1
 1000 0 l 1
 800 0 l 1
 800 200 l 1
1000 200 m 1
 1200 200 l 1
 1200 0 l 1
 1000 0 l 1
 1000 200 l 1
1250 200 m 1
 1350 200 l 1
 1350 0 l 1
 1250 0 l 1
 1250 200 l 1
1400 200 m 1
 1600 200 l 1
 1600 0 l 1
 1400 0 l 1
 1400 200 l 1
EndSplineSet
EndChar

StartChar: C
Encoding: 67 67 26
Width: 1600
VWidth: 800
Flags: W
HStem: 0 21G<0 200 250 350 400 600 600 800 800 1000 1000 1200 1250 1350 1450 1550> 0 21G<0 200 250 350 400 600 600 800 800 1000 1000 1200 1250 1350 1450 1550> 180 20G<0 200 250 350 400 600 600 800 800 1000 1000 1200 1250 1350 1450 1550> 180 20G<0 200 250 350 400 600 600 800 800 1000 1000 1200 1250 1350 1450 1550>
VStem: 0 200<0 200> 250 100<0 200> 1000 200<0 200> 1250 100<0 200> 1450 100<0 200>
LayerCount: 2
Fore
SplineSet
0 200 m 1xaf80
 200 200 l 1
 200 0 l 1
 0 0 l 1
 0 200 l 1xaf80
250 200 m 1
 350 200 l 1
 350 0 l 1
 250 0 l 1
 250 200 l 1
400 200 m 1
 600 200 l 1
 600 0 l 1
 400 0 l 1
 400 200 l 1
600 200 m 1
 800 200 l 1
 800 0 l 1
 600 0 l 1
 600 200 l 1
800 200 m 1
 1000 200 l 1
 1000 0 l 1
 800 0 l 1
 800 200 l 1
1000 200 m 1
 1200 200 l 1
 1200 0 l 1
 1000 0 l 1
 1000 200 l 1
1250 200 m 1
 1350 200 l 1
 1350 0 l 1
 1250 0 l 1
 1250 200 l 1
1450 200 m 5
 1550 200 l 5
 1550 0 l 5
 1450 0 l 5
 1450 200 l 5
EndSplineSet
EndChar

StartChar: D
Encoding: 68 68 27
Width: 1600
VWidth: 800
Flags: W
HStem: 0 21G<0 200 250 350 400 600 600 800 800 1000 1050 1150 1200 1400 1400 1600> 0 21G<0 200 250 350 400 600 600 800 800 1000 1050 1150 1200 1400 1400 1600> 180 20G<0 200 250 350 400 600 600 800 800 1000 1050 1150 1200 1400 1400 1600> 180 20G<0 200 250 350 400 600 600 800 800 1000 1050 1150 1200 1400 1400 1600>
VStem: 0 200<0 200> 250 100<0 200> 1050 100<0 200>
LayerCount: 2
Fore
SplineSet
0 200 m 1xae
 200 200 l 1
 200 0 l 1
 0 0 l 1
 0 200 l 1xae
250 200 m 1
 350 200 l 1
 350 0 l 1
 250 0 l 1
 250 200 l 1
400 200 m 1
 600 200 l 1
 600 0 l 1
 400 0 l 1
 400 200 l 1
600 200 m 1
 800 200 l 1
 800 0 l 1
 600 0 l 1
 600 200 l 1
800 200 m 1
 1000 200 l 1
 1000 0 l 1
 800 0 l 1
 800 200 l 1
1050 200 m 1
 1150 200 l 1
 1150 0 l 1
 1050 0 l 1
 1050 200 l 1
1200 200 m 5
 1400 200 l 1
 1400 0 l 1
 1200 0 l 5
 1200 200 l 5
1400 200 m 1
 1600 200 l 1
 1600 0 l 1
 1400 0 l 1
 1400 200 l 1
EndSplineSet
EndChar

StartChar: E
Encoding: 69 69 28
Width: 1600
VWidth: 800
Flags: W
HStem: 0 21G<0 200 250 350 400 600 600 800 800 1000 1050 1150 1200 1400 1450 1550> 0 21G<0 200 250 350 400 600 600 800 800 1000 1050 1150 1200 1400 1450 1550> 180 20G<0 200 250 350 400 600 600 800 800 1000 1050 1150 1200 1400 1450 1550> 180 20G<0 200 250 350 400 600 600 800 800 1000 1050 1150 1200 1400 1450 1550>
VStem: 0 200<0 200> 250 100<0 200> 1050 100<0 200> 1200 200<0 200> 1450 100<0 200>
LayerCount: 2
Fore
SplineSet
0 200 m 1xaf80
 200 200 l 1
 200 0 l 1
 0 0 l 1
 0 200 l 1xaf80
250 200 m 1
 350 200 l 1
 350 0 l 1
 250 0 l 1
 250 200 l 1
400 200 m 1
 600 200 l 1
 600 0 l 1
 400 0 l 1
 400 200 l 1
600 200 m 1
 800 200 l 1
 800 0 l 1
 600 0 l 1
 600 200 l 1
800 200 m 1
 1000 200 l 1
 1000 0 l 1
 800 0 l 1
 800 200 l 1
1050 200 m 1
 1150 200 l 1
 1150 0 l 1
 1050 0 l 1
 1050 200 l 1
1200 200 m 1
 1400 200 l 1
 1400 0 l 1
 1200 0 l 1
 1200 200 l 1
1450 200 m 5
 1550 200 l 5
 1550 0 l 5
 1450 0 l 5
 1450 200 l 5
EndSplineSet
EndChar

StartChar: F
Encoding: 70 70 29
Width: 1600
VWidth: 800
Flags: W
HStem: 0 21G<0 200 250 350 400 600 600 800 800 1000 1050 1150 1250 1350 1400 1600> 0 21G<0 200 250 350 400 600 600 800 800 1000 1050 1150 1250 1350 1400 1600> 180 20G<0 200 250 350 400 600 600 800 800 1000 1050 1150 1250 1350 1400 1600> 180 20G<0 200 250 350 400 600 600 800 800 1000 1050 1150 1250 1350 1400 1600>
VStem: 0 200<0 200> 250 100<0 200> 1050 100<0 200> 1250 100<0 200> 1400 200<0 200>
LayerCount: 2
Fore
SplineSet
0 200 m 1xaf80
 200 200 l 1
 200 0 l 1
 0 0 l 1
 0 200 l 1xaf80
250 200 m 1
 350 200 l 1
 350 0 l 1
 250 0 l 1
 250 200 l 1
400 200 m 1
 600 200 l 1
 600 0 l 1
 400 0 l 1
 400 200 l 1
600 200 m 1
 800 200 l 1
 800 0 l 1
 600 0 l 1
 600 200 l 1
800 200 m 1
 1000 200 l 1
 1000 0 l 1
 800 0 l 1
 800 200 l 1
1050 200 m 1
 1150 200 l 1
 1150 0 l 1
 1050 0 l 1
 1050 200 l 1
1250 200 m 1
 1350 200 l 1
 1350 0 l 1
 1250 0 l 1
 1250 200 l 1
1400 200 m 5
 1600 200 l 5
 1600 0 l 5
 1400 0 l 5
 1400 200 l 5
EndSplineSet
EndChar

StartChar: G
Encoding: 71 71 30
Width: 1600
VWidth: 800
Flags: W
HStem: 0 21G<0 200 250 350 400 600 600 800 800 1000 1050 1150 1250 1350 1450 1550> 0 21G<0 200 250 350 400 600 600 800 800 1000 1050 1150 1250 1350 1450 1550> 180 20G<0 200 250 350 400 600 600 800 800 1000 1050 1150 1250 1350 1450 1550> 180 20G<0 200 250 350 400 600 600 800 800 1000 1050 1150 1250 1350 1450 1550>
VStem: 0 200<0 200> 250 100<0 200> 1050 100<0 200> 1250 100<0 200> 1450 100<0 200>
LayerCount: 2
Fore
SplineSet
0 200 m 1xaf80
 200 200 l 1
 200 0 l 1
 0 0 l 1
 0 200 l 1xaf80
250 200 m 1
 350 200 l 1
 350 0 l 1
 250 0 l 1
 250 200 l 1
400 200 m 1
 600 200 l 1
 600 0 l 1
 400 0 l 1
 400 200 l 1
600 200 m 1
 800 200 l 1
 800 0 l 1
 600 0 l 1
 600 200 l 1
800 200 m 1
 1000 200 l 1
 1000 0 l 1
 800 0 l 1
 800 200 l 1
1050 200 m 1
 1150 200 l 1
 1150 0 l 1
 1050 0 l 1
 1050 200 l 1
1250 200 m 5
 1350 200 l 5
 1350 0 l 5
 1250 0 l 5
 1250 200 l 5
1450 200 m 1
 1550 200 l 1
 1550 0 l 1
 1450 0 l 1
 1450 200 l 1
EndSplineSet
EndChar

StartChar: H
Encoding: 72 72 31
Width: 1600
VWidth: 800
Flags: W
HStem: 0 21G<0 200 250 350 400 600 600 800 850 950 1000 1200 1200 1400 1400 1600> 0 21G<0 200 250 350 400 600 600 800 850 950 1000 1200 1200 1400 1400 1600> 180 20G<0 200 250 350 400 600 600 800 850 950 1000 1200 1200 1400 1400 1600> 180 20G<0 200 250 350 400 600 600 800 850 950 1000 1200 1200 1400 1400 1600>
VStem: 0 200<0 200> 250 100<0 200> 850 100<0 200>
LayerCount: 2
Fore
SplineSet
0 200 m 1xae
 200 200 l 1
 200 0 l 1
 0 0 l 1
 0 200 l 1xae
250 200 m 1
 350 200 l 1
 350 0 l 1
 250 0 l 1
 250 200 l 1
400 200 m 1
 600 200 l 1
 600 0 l 1
 400 0 l 1
 400 200 l 1
600 200 m 1
 800 200 l 1
 800 0 l 1
 600 0 l 1
 600 200 l 1
850 200 m 1
 950 200 l 1
 950 0 l 1
 850 0 l 1
 850 200 l 1
1000 200 m 5
 1200 200 l 5
 1200 0 l 5
 1000 0 l 5
 1000 200 l 5
1200 200 m 5
 1400 200 l 5
 1400 0 l 5
 1200 0 l 5
 1200 200 l 5
1400 200 m 5
 1600 200 l 5
 1600 0 l 5
 1400 0 l 5
 1400 200 l 5
EndSplineSet
EndChar

StartChar: I
Encoding: 73 73 32
Width: 1600
VWidth: 800
Flags: W
HStem: 0 21G<0 200 250 350 400 600 600 800 850 950 1000 1200 1200 1400 1450 1550> 0 21G<0 200 250 350 400 600 600 800 850 950 1000 1200 1200 1400 1450 1550> 180 20G<0 200 250 350 400 600 600 800 850 950 1000 1200 1200 1400 1450 1550> 180 20G<0 200 250 350 400 600 600 800 850 950 1000 1200 1200 1400 1450 1550>
VStem: 0 200<0 200> 250 100<0 200> 850 100<0 200> 1450 100<0 200>
LayerCount: 2
Fore
SplineSet
0 200 m 1xaf
 200 200 l 1
 200 0 l 1
 0 0 l 1
 0 200 l 1xaf
250 200 m 1
 350 200 l 1
 350 0 l 1
 250 0 l 1
 250 200 l 1
400 200 m 1
 600 200 l 1
 600 0 l 1
 400 0 l 1
 400 200 l 1
600 200 m 1
 800 200 l 1
 800 0 l 1
 600 0 l 1
 600 200 l 1
850 200 m 1
 950 200 l 1
 950 0 l 1
 850 0 l 1
 850 200 l 1
1000 200 m 1
 1200 200 l 1
 1200 0 l 1
 1000 0 l 1
 1000 200 l 1
1200 200 m 1
 1400 200 l 1
 1400 0 l 1
 1200 0 l 1
 1200 200 l 1
1450 200 m 5
 1550 200 l 5
 1550 0 l 5
 1450 0 l 5
 1450 200 l 5
EndSplineSet
EndChar

StartChar: J
Encoding: 74 74 33
Width: 1600
VWidth: 800
Flags: W
HStem: 0 21G<0 200 250 350 400 600 600 800 850 950 1000 1200 1250 1350 1400 1600> 0 21G<0 200 250 350 400 600 600 800 850 950 1000 1200 1250 1350 1400 1600> 180 20G<0 200 250 350 400 600 600 800 850 950 1000 1200 1250 1350 1400 1600> 180 20G<0 200 250 350 400 600 600 800 850 950 1000 1200 1250 1350 1400 1600>
VStem: 0 200<0 200> 250 100<0 200> 850 100<0 200> 1000 200<0 200> 1250 100<0 200> 1400 200<0 200>
LayerCount: 2
Fore
SplineSet
0 200 m 1xafc0
 200 200 l 1
 200 0 l 1
 0 0 l 1
 0 200 l 1xafc0
250 200 m 1
 350 200 l 1
 350 0 l 1
 250 0 l 1
 250 200 l 1
400 200 m 1
 600 200 l 1
 600 0 l 1
 400 0 l 1
 400 200 l 1
600 200 m 1
 800 200 l 1
 800 0 l 1
 600 0 l 1
 600 200 l 1
850 200 m 1
 950 200 l 1
 950 0 l 1
 850 0 l 1
 850 200 l 1
1000 200 m 1
 1200 200 l 1
 1200 0 l 1
 1000 0 l 1
 1000 200 l 1
1250 200 m 1
 1350 200 l 1
 1350 0 l 1
 1250 0 l 1
 1250 200 l 1
1400 200 m 5
 1600 200 l 5
 1600 0 l 5
 1400 0 l 5
 1400 200 l 5
EndSplineSet
EndChar

StartChar: K
Encoding: 75 75 34
Width: 1600
VWidth: 800
Flags: W
HStem: 0 21G<0 200 250 350 400 600 600 800 850 950 1000 1200 1250 1350 1450 1550> 0 21G<0 200 250 350 400 600 600 800 850 950 1000 1200 1250 1350 1450 1550> 180 20G<0 200 250 350 400 600 600 800 850 950 1000 1200 1250 1350 1450 1550> 180 20G<0 200 250 350 400 600 600 800 850 950 1000 1200 1250 1350 1450 1550>
VStem: 0 200<0 200> 250 100<0 200> 850 100<0 200> 1000 200<0 200> 1250 100<0 200> 1450 100<0 200>
LayerCount: 2
Fore
SplineSet
0 200 m 1xafc0
 200 200 l 1
 200 0 l 1
 0 0 l 1
 0 200 l 1xafc0
250 200 m 1
 350 200 l 1
 350 0 l 1
 250 0 l 1
 250 200 l 1
400 200 m 1
 600 200 l 1
 600 0 l 1
 400 0 l 1
 400 200 l 1
600 200 m 1
 800 200 l 1
 800 0 l 1
 600 0 l 1
 600 200 l 1
850 200 m 1
 950 200 l 1
 950 0 l 1
 850 0 l 1
 850 200 l 1
1000 200 m 1
 1200 200 l 1
 1200 0 l 1
 1000 0 l 1
 1000 200 l 1
1250 200 m 1
 1350 200 l 1
 1350 0 l 1
 1250 0 l 1
 1250 200 l 1
1450 200 m 5
 1550 200 l 5
 1550 0 l 5
 1450 0 l 5
 1450 200 l 5
EndSplineSet
EndChar

StartChar: L
Encoding: 76 76 35
Width: 1600
VWidth: 800
Flags: W
HStem: 0 21G<0 200 250 350 400 600 600 800 850 950 1050 1150 1200 1400 1400 1600> 0 21G<0 200 250 350 400 600 600 800 850 950 1050 1150 1200 1400 1400 1600> 180 20G<0 200 250 350 400 600 600 800 850 950 1050 1150 1200 1400 1400 1600> 180 20G<0 200 250 350 400 600 600 800 850 950 1050 1150 1200 1400 1400 1600>
VStem: 0 200<0 200> 250 100<0 200> 850 100<0 200> 1050 100<0 200>
LayerCount: 2
Fore
SplineSet
0 200 m 1xaf
 200 200 l 1
 200 0 l 1
 0 0 l 1
 0 200 l 1xaf
250 200 m 1
 350 200 l 1
 350 0 l 1
 250 0 l 1
 250 200 l 1
400 200 m 1
 600 200 l 1
 600 0 l 1
 400 0 l 1
 400 200 l 1
600 200 m 1
 800 200 l 1
 800 0 l 1
 600 0 l 1
 600 200 l 1
850 200 m 1
 950 200 l 1
 950 0 l 1
 850 0 l 1
 850 200 l 1
1050 200 m 1
 1150 200 l 1
 1150 0 l 1
 1050 0 l 1
 1050 200 l 1
1200 200 m 5
 1400 200 l 5
 1400 0 l 5
 1200 0 l 5
 1200 200 l 5
1400 200 m 5
 1600 200 l 5
 1600 0 l 5
 1400 0 l 5
 1400 200 l 5
EndSplineSet
EndChar

StartChar: M
Encoding: 77 77 36
Width: 1600
VWidth: 800
Flags: W
HStem: 0 21G<0 200 250 350 400 600 600 800 850 950 1050 1150 1200 1400 1450 1550> 0 21G<0 200 250 350 400 600 600 800 850 950 1050 1150 1200 1400 1450 1550> 180 20G<0 200 250 350 400 600 600 800 850 950 1050 1150 1200 1400 1450 1550> 180 20G<0 200 250 350 400 600 600 800 850 950 1050 1150 1200 1400 1450 1550>
VStem: 0 200<0 200> 250 100<0 200> 850 100<0 200> 1050 100<0 200> 1200 200<0 200> 1450 100<0 200>
LayerCount: 2
Fore
SplineSet
0 200 m 1xafc0
 200 200 l 1
 200 0 l 1
 0 0 l 1
 0 200 l 1xafc0
250 200 m 1
 350 200 l 1
 350 0 l 1
 250 0 l 1
 250 200 l 1
400 200 m 1
 600 200 l 1
 600 0 l 1
 400 0 l 1
 400 200 l 1
600 200 m 1
 800 200 l 1
 800 0 l 1
 600 0 l 1
 600 200 l 1
850 200 m 1
 950 200 l 1
 950 0 l 1
 850 0 l 1
 850 200 l 1
1050 200 m 1
 1150 200 l 1
 1150 0 l 1
 1050 0 l 1
 1050 200 l 1
1200 200 m 1
 1400 200 l 1
 1400 0 l 1
 1200 0 l 1
 1200 200 l 1
1450 200 m 5
 1550 200 l 5
 1550 0 l 5
 1450 0 l 5
 1450 200 l 5
EndSplineSet
EndChar

StartChar: N
Encoding: 78 78 37
Width: 1600
VWidth: 800
Flags: W
HStem: 0 21G<0 200 250 350 400 600 600 800 850 950 1050 1150 1250 1350 1400 1600> 0 21G<0 200 250 350 400 600 600 800 850 950 1050 1150 1250 1350 1400 1600> 180 20G<0 200 250 350 400 600 600 800 850 950 1050 1150 1250 1350 1400 1600> 180 20G<0 200 250 350 400 600 600 800 850 950 1050 1150 1250 1350 1400 1600>
VStem: 0 200<0 200> 250 100<0 200> 850 100<0 200> 1050 100<0 200> 1250 100<0 200> 1400 200<0 200>
LayerCount: 2
Fore
SplineSet
0 200 m 1xafc0
 200 200 l 1
 200 0 l 1
 0 0 l 1
 0 200 l 1xafc0
250 200 m 1
 350 200 l 1
 350 0 l 1
 250 0 l 1
 250 200 l 1
400 200 m 1
 600 200 l 1
 600 0 l 1
 400 0 l 1
 400 200 l 1
600 200 m 1
 800 200 l 1
 800 0 l 1
 600 0 l 1
 600 200 l 1
850 200 m 1
 950 200 l 1
 950 0 l 1
 850 0 l 1
 850 200 l 1
1050 200 m 1
 1150 200 l 1
 1150 0 l 1
 1050 0 l 1
 1050 200 l 1
1250 200 m 1
 1350 200 l 1
 1350 0 l 1
 1250 0 l 1
 1250 200 l 1
1400 200 m 5
 1600 200 l 5
 1600 0 l 5
 1400 0 l 5
 1400 200 l 5
EndSplineSet
EndChar

StartChar: O
Encoding: 79 79 38
Width: 1600
VWidth: 800
Flags: W
HStem: 0 21G<0 200 250 350 400 600 600 800 850 950 1050 1150 1250 1350 1450 1550> 0 21G<0 200 250 350 400 600 600 800 850 950 1050 1150 1250 1350 1450 1550> 180 20G<0 200 250 350 400 600 600 800 850 950 1050 1150 1250 1350 1450 1550> 180 20G<0 200 250 350 400 600 600 800 850 950 1050 1150 1250 1350 1450 1550>
VStem: 0 200<0 200> 250 100<0 200> 850 100<0 200> 1050 100<0 200> 1250 100<0 200> 1450 100<0 200>
LayerCount: 2
Fore
SplineSet
0 200 m 1xafc0
 200 200 l 1
 200 0 l 1
 0 0 l 1
 0 200 l 1xafc0
250 200 m 1
 350 200 l 1
 350 0 l 1
 250 0 l 1
 250 200 l 1
400 200 m 1
 600 200 l 1
 600 0 l 1
 400 0 l 1
 400 200 l 1
600 200 m 1
 800 200 l 1
 800 0 l 1
 600 0 l 1
 600 200 l 1
850 200 m 1
 950 200 l 1
 950 0 l 1
 850 0 l 1
 850 200 l 1
1050 200 m 1
 1150 200 l 1
 1150 0 l 1
 1050 0 l 1
 1050 200 l 1
1250 200 m 1
 1350 200 l 1
 1350 0 l 1
 1250 0 l 1
 1250 200 l 1
1450 200 m 5
 1550 200 l 5
 1550 0 l 5
 1450 0 l 5
 1450 200 l 5
EndSplineSet
EndChar

StartChar: P
Encoding: 80 80 39
Width: 1600
VWidth: 800
Flags: W
HStem: 0 21G<0 200 250 350 400 600 650 750 800 1000 1000 1200 1200 1400 1400 1600> 0 21G<0 200 250 350 400 600 650 750 800 1000 1000 1200 1200 1400 1400 1600> 180 20G<0 200 250 350 400 600 650 750 800 1000 1000 1200 1200 1400 1400 1600> 180 20G<0 200 250 350 400 600 650 750 800 1000 1000 1200 1200 1400 1400 1600>
VStem: 0 200<0 200> 250 100<0 200> 400 200<0 200> 650 100<0 200> 800 200<0 200>
LayerCount: 2
Fore
SplineSet
0 200 m 1xaf80
 200 200 l 1
 200 0 l 1
 0 0 l 1
 0 200 l 1xaf80
250 200 m 1
 350 200 l 1
 350 0 l 1
 250 0 l 1
 250 200 l 1
400 200 m 1
 600 200 l 1
 600 0 l 1
 400 0 l 1
 400 200 l 1
650 200 m 1
 750 200 l 1
 750 0 l 1
 650 0 l 1
 650 200 l 1
800 200 m 5
 1000 200 l 5
 1000 0 l 5
 800 0 l 5
 800 200 l 5
1000 200 m 5
 1200 200 l 5
 1200 0 l 5
 1000 0 l 5
 1000 200 l 5
1200 200 m 5
 1400 200 l 5
 1400 0 l 5
 1200 0 l 5
 1200 200 l 5
1400 200 m 5
 1600 200 l 5
 1600 0 l 5
 1400 0 l 5
 1400 200 l 5
EndSplineSet
EndChar

StartChar: Q
Encoding: 81 81 40
Width: 1600
VWidth: 800
Flags: W
HStem: 0 21G<0 200 250 350 400 600 650 750 800 1000 1000 1200 1200 1400 1450 1550> 0 21G<0 200 250 350 400 600 650 750 800 1000 1000 1200 1200 1400 1450 1550> 180 20G<0 200 250 350 400 600 650 750 800 1000 1000 1200 1200 1400 1450 1550> 180 20G<0 200 250 350 400 600 650 750 800 1000 1000 1200 1200 1400 1450 1550>
VStem: 0 200<0 200> 250 100<0 200> 400 200<0 200> 650 100<0 200> 800 200<0 200> 1450 100<0 200>
LayerCount: 2
Fore
SplineSet
0 200 m 1xafc0
 200 200 l 1
 200 0 l 1
 0 0 l 1
 0 200 l 1xafc0
250 200 m 1
 350 200 l 1
 350 0 l 1
 250 0 l 1
 250 200 l 1
400 200 m 1
 600 200 l 1
 600 0 l 1
 400 0 l 1
 400 200 l 1
650 200 m 1
 750 200 l 1
 750 0 l 1
 650 0 l 1
 650 200 l 1
800 200 m 1
 1000 200 l 1
 1000 0 l 1
 800 0 l 1
 800 200 l 1
1000 200 m 1
 1200 200 l 1
 1200 0 l 1
 1000 0 l 1
 1000 200 l 1
1200 200 m 1
 1400 200 l 1
 1400 0 l 1
 1200 0 l 1
 1200 200 l 1
1450 200 m 5
 1550 200 l 5
 1550 0 l 5
 1450 0 l 5
 1450 200 l 5
EndSplineSet
EndChar

StartChar: R
Encoding: 82 82 41
Width: 1600
VWidth: 800
Flags: W
HStem: 0 21G<0 200 250 350 400 600 650 750 800 1000 1000 1200 1250 1350 1400 1600> 0 21G<0 200 250 350 400 600 650 750 800 1000 1000 1200 1250 1350 1400 1600> 180 20G<0 200 250 350 400 600 650 750 800 1000 1000 1200 1250 1350 1400 1600> 180 20G<0 200 250 350 400 600 650 750 800 1000 1000 1200 1250 1350 1400 1600>
VStem: 0 200<0 200> 250 100<0 200> 400 200<0 200> 650 100<0 200> 800 200<0 200> 1000 200<0 200> 1250 100<0 200> 1400 200<0 200>
LayerCount: 2
Fore
SplineSet
0 200 m 1xaf30
 200 200 l 1
 200 0 l 1
 0 0 l 1
 0 200 l 1xaf30
250 200 m 1
 350 200 l 1
 350 0 l 1
 250 0 l 1
 250 200 l 1
400 200 m 1
 600 200 l 1
 600 0 l 1
 400 0 l 1
 400 200 l 1
650 200 m 1
 750 200 l 1
 750 0 l 1
 650 0 l 1
 650 200 l 1
800 200 m 1xafb0
 1000 200 l 1
 1000 0 l 1
 800 0 l 1
 800 200 l 1xafb0
1000 200 m 1
 1200 200 l 1
 1200 0 l 1xaf70
 1000 0 l 1
 1000 200 l 1
1250 200 m 1
 1350 200 l 1
 1350 0 l 1
 1250 0 l 1
 1250 200 l 1
1400 200 m 5
 1600 200 l 5
 1600 0 l 5
 1400 0 l 5
 1400 200 l 5
EndSplineSet
EndChar

StartChar: S
Encoding: 83 83 42
Width: 1600
VWidth: 800
Flags: W
HStem: 0 21G<0 200 250 350 400 600 650 750 800 1000 1000 1200 1250 1350 1450 1550> 0 21G<0 200 250 350 400 600 650 750 800 1000 1000 1200 1250 1350 1450 1550> 180 20G<0 200 250 350 400 600 650 750 800 1000 1000 1200 1250 1350 1450 1550> 180 20G<0 200 250 350 400 600 650 750 800 1000 1000 1200 1250 1350 1450 1550>
VStem: 0 200<0 200> 250 100<0 200> 400 200<0 200> 650 100<0 200> 800 200<0 200> 1000 200<0 200> 1250 100<0 200> 1450 100<0 200>
LayerCount: 2
Fore
SplineSet
0 200 m 1xaf30
 200 200 l 1
 200 0 l 1
 0 0 l 1
 0 200 l 1xaf30
250 200 m 1
 350 200 l 1
 350 0 l 1
 250 0 l 1
 250 200 l 1
400 200 m 1
 600 200 l 1
 600 0 l 1
 400 0 l 1
 400 200 l 1
650 200 m 1
 750 200 l 1
 750 0 l 1
 650 0 l 1
 650 200 l 1
800 200 m 1xafb0
 1000 200 l 1
 1000 0 l 1
 800 0 l 1
 800 200 l 1xafb0
1000 200 m 1
 1200 200 l 1
 1200 0 l 1xaf70
 1000 0 l 1
 1000 200 l 1
1250 200 m 1
 1350 200 l 1
 1350 0 l 1
 1250 0 l 1
 1250 200 l 1
1450 200 m 5
 1550 200 l 5
 1550 0 l 5
 1450 0 l 5
 1450 200 l 5
EndSplineSet
EndChar

StartChar: T
Encoding: 84 84 43
Width: 1600
VWidth: 800
Flags: W
HStem: 0 21G<0 200 250 350 400 600 650 750 800 1000 1050 1150 1200 1400 1400 1600> 0 21G<0 200 250 350 400 600 650 750 800 1000 1050 1150 1200 1400 1400 1600> 180 20G<0 200 250 350 400 600 650 750 800 1000 1050 1150 1200 1400 1400 1600> 180 20G<0 200 250 350 400 600 650 750 800 1000 1050 1150 1200 1400 1400 1600>
VStem: 0 200<0 200> 250 100<0 200> 400 200<0 200> 650 100<0 200> 800 200<0 200> 1050 100<0 200>
LayerCount: 2
Fore
SplineSet
0 200 m 1xafc0
 200 200 l 1
 200 0 l 1
 0 0 l 1
 0 200 l 1xafc0
250 200 m 1
 350 200 l 1
 350 0 l 1
 250 0 l 1
 250 200 l 1
400 200 m 1
 600 200 l 1
 600 0 l 1
 400 0 l 1
 400 200 l 1
650 200 m 1
 750 200 l 1
 750 0 l 1
 650 0 l 1
 650 200 l 1
800 200 m 1
 1000 200 l 1
 1000 0 l 1
 800 0 l 1
 800 200 l 1
1050 200 m 1
 1150 200 l 1
 1150 0 l 1
 1050 0 l 1
 1050 200 l 1
1200 200 m 5
 1400 200 l 5
 1400 0 l 5
 1200 0 l 5
 1200 200 l 5
1400 200 m 5
 1600 200 l 5
 1600 0 l 5
 1400 0 l 5
 1400 200 l 5
EndSplineSet
EndChar

StartChar: U
Encoding: 85 85 44
Width: 1600
VWidth: 800
Flags: W
HStem: 0 21G<0 200 250 350 400 600 650 750 800 1000 1050 1150 1200 1400 1450 1550> 0 21G<0 200 250 350 400 600 650 750 800 1000 1050 1150 1200 1400 1450 1550> 180 20G<0 200 250 350 400 600 650 750 800 1000 1050 1150 1200 1400 1450 1550> 180 20G<0 200 250 350 400 600 650 750 800 1000 1050 1150 1200 1400 1450 1550>
VStem: 0 200<0 200> 250 100<0 200> 400 200<0 200> 650 100<0 200> 800 200<0 200> 1050 100<0 200> 1200 200<0 200> 1450 100<0 200>
LayerCount: 2
Fore
SplineSet
0 200 m 1xaff0
 200 200 l 1
 200 0 l 1
 0 0 l 1
 0 200 l 1xaff0
250 200 m 1
 350 200 l 1
 350 0 l 1
 250 0 l 1
 250 200 l 1
400 200 m 1
 600 200 l 1
 600 0 l 1
 400 0 l 1
 400 200 l 1
650 200 m 1
 750 200 l 1
 750 0 l 1
 650 0 l 1
 650 200 l 1
800 200 m 1
 1000 200 l 1
 1000 0 l 1
 800 0 l 1
 800 200 l 1
1050 200 m 1
 1150 200 l 1
 1150 0 l 1
 1050 0 l 1
 1050 200 l 1
1200 200 m 1
 1400 200 l 1
 1400 0 l 1
 1200 0 l 1
 1200 200 l 1
1450 200 m 5
 1550 200 l 5
 1550 0 l 5
 1450 0 l 5
 1450 200 l 5
EndSplineSet
EndChar

StartChar: V
Encoding: 86 86 45
Width: 1600
VWidth: 800
Flags: W
HStem: 0 21G<0 200 250 350 400 600 650 750 800 1000 1050 1150 1250 1350 1400 1600> 0 21G<0 200 250 350 400 600 650 750 800 1000 1050 1150 1250 1350 1400 1600> 180 20G<0 200 250 350 400 600 650 750 800 1000 1050 1150 1250 1350 1400 1600> 180 20G<0 200 250 350 400 600 650 750 800 1000 1050 1150 1250 1350 1400 1600>
VStem: 0 200<0 200> 250 100<0 200> 400 200<0 200> 650 100<0 200> 800 200<0 200> 1050 100<0 200> 1250 100<0 200> 1400 200<0 200>
LayerCount: 2
Fore
SplineSet
0 200 m 1xaff0
 200 200 l 1
 200 0 l 1
 0 0 l 1
 0 200 l 1xaff0
250 200 m 1
 350 200 l 1
 350 0 l 1
 250 0 l 1
 250 200 l 1
400 200 m 1
 600 200 l 1
 600 0 l 1
 400 0 l 1
 400 200 l 1
650 200 m 1
 750 200 l 1
 750 0 l 1
 650 0 l 1
 650 200 l 1
800 200 m 1
 1000 200 l 1
 1000 0 l 1
 800 0 l 1
 800 200 l 1
1050 200 m 1
 1150 200 l 1
 1150 0 l 1
 1050 0 l 1
 1050 200 l 1
1250 200 m 1
 1350 200 l 1
 1350 0 l 1
 1250 0 l 1
 1250 200 l 1
1400 200 m 5
 1600 200 l 5
 1600 0 l 5
 1400 0 l 5
 1400 200 l 5
EndSplineSet
EndChar

StartChar: W
Encoding: 87 87 46
Width: 1600
VWidth: 800
Flags: W
HStem: 0 21G<0 200 250 350 400 600 650 750 800 1000 1050 1150 1250 1350 1450 1550> 0 21G<0 200 250 350 400 600 650 750 800 1000 1050 1150 1250 1350 1450 1550> 180 20G<0 200 250 350 400 600 650 750 800 1000 1050 1150 1250 1350 1450 1550> 180 20G<0 200 250 350 400 600 650 750 800 1000 1050 1150 1250 1350 1450 1550>
VStem: 0 200<0 200> 250 100<0 200> 400 200<0 200> 650 100<0 200> 800 200<0 200> 1050 100<0 200> 1250 100<0 200> 1450 100<0 200>
LayerCount: 2
Fore
SplineSet
0 200 m 1xaff0
 200 200 l 1
 200 0 l 1
 0 0 l 1
 0 200 l 1xaff0
250 200 m 1
 350 200 l 1
 350 0 l 1
 250 0 l 1
 250 200 l 1
400 200 m 1
 600 200 l 1
 600 0 l 1
 400 0 l 1
 400 200 l 1
650 200 m 1
 750 200 l 1
 750 0 l 1
 650 0 l 1
 650 200 l 1
800 200 m 1
 1000 200 l 1
 1000 0 l 1
 800 0 l 1
 800 200 l 1
1050 200 m 1
 1150 200 l 1
 1150 0 l 1
 1050 0 l 1
 1050 200 l 1
1250 200 m 1
 1350 200 l 1
 1350 0 l 1
 1250 0 l 1
 1250 200 l 1
1450 200 m 5
 1550 200 l 5
 1550 0 l 5
 1450 0 l 5
 1450 200 l 5
EndSplineSet
EndChar

StartChar: X
Encoding: 88 88 47
Width: 1600
VWidth: 800
Flags: W
HStem: 0 21G<0 200 250 350 400 600 650 750 850 950 1000 1200 1200 1400 1400 1600> 0 21G<0 200 250 350 400 600 650 750 850 950 1000 1200 1200 1400 1400 1600> 180 20G<0 200 250 350 400 600 650 750 850 950 1000 1200 1200 1400 1400 1600> 180 20G<0 200 250 350 400 600 650 750 850 950 1000 1200 1200 1400 1400 1600>
VStem: 0 200<0 200> 250 100<0 200> 400 200<0 200> 650 100<0 200> 850 100<0 200>
LayerCount: 2
Fore
SplineSet
0 200 m 1xaf80
 200 200 l 1
 200 0 l 1
 0 0 l 1
 0 200 l 1xaf80
250 200 m 1
 350 200 l 1
 350 0 l 1
 250 0 l 1
 250 200 l 1
400 200 m 1
 600 200 l 1
 600 0 l 1
 400 0 l 1
 400 200 l 1
650 200 m 1
 750 200 l 1
 750 0 l 1
 650 0 l 1
 650 200 l 1
850 200 m 1
 950 200 l 1
 950 0 l 1
 850 0 l 1
 850 200 l 1
1000 200 m 5
 1200 200 l 5
 1200 0 l 5
 1000 0 l 5
 1000 200 l 5
1200 200 m 5
 1400 200 l 5
 1400 0 l 5
 1200 0 l 5
 1200 200 l 5
1400 200 m 5
 1600 200 l 5
 1600 0 l 5
 1400 0 l 5
 1400 200 l 5
EndSplineSet
EndChar

StartChar: Y
Encoding: 89 89 48
Width: 1600
VWidth: 800
Flags: W
HStem: 0 21G<0 200 250 350 400 600 650 750 850 950 1000 1200 1200 1400 1450 1550> 0 21G<0 200 250 350 400 600 650 750 850 950 1000 1200 1200 1400 1450 1550> 180 20G<0 200 250 350 400 600 650 750 850 950 1000 1200 1200 1400 1450 1550> 180 20G<0 200 250 350 400 600 650 750 850 950 1000 1200 1200 1400 1450 1550>
VStem: 0 200<0 200> 250 100<0 200> 400 200<0 200> 650 100<0 200> 850 100<0 200> 1450 100<0 200>
LayerCount: 2
Fore
SplineSet
0 200 m 1xafc0
 200 200 l 1
 200 0 l 1
 0 0 l 1
 0 200 l 1xafc0
250 200 m 1
 350 200 l 1
 350 0 l 1
 250 0 l 1
 250 200 l 1
400 200 m 1
 600 200 l 1
 600 0 l 1
 400 0 l 1
 400 200 l 1
650 200 m 1
 750 200 l 1
 750 0 l 1
 650 0 l 1
 650 200 l 1
850 200 m 1
 950 200 l 1
 950 0 l 1
 850 0 l 1
 850 200 l 1
1000 200 m 1
 1200 200 l 1
 1200 0 l 1
 1000 0 l 1
 1000 200 l 1
1200 200 m 1
 1400 200 l 1
 1400 0 l 1
 1200 0 l 1
 1200 200 l 1
1450 200 m 5
 1550 200 l 5
 1550 0 l 5
 1450 0 l 5
 1450 200 l 5
EndSplineSet
EndChar

StartChar: 0
Encoding: 48 48 49
Width: 1600
VWidth: 800
Flags: W
HStem: 0 21G<0 200 200 400 450 550 650 750 800 1000 1000 1200 1200 1400 1400 1600> 0 21G<0 200 200 400 450 550 650 750 800 1000 1000 1200 1200 1400 1400 1600> 180 20G<0 200 200 400 450 550 650 750 800 1000 1000 1200 1200 1400 1400 1600> 180 20G<0 200 200 400 450 550 650 750 800 1000 1000 1200 1200 1400 1400 1600>
VStem: 450 100<0 200> 650 100<0 200> 800 200<0 200> 1000 200<0 200>
LayerCount: 2
Fore
SplineSet
0 200 m 1xac
 200 200 l 1
 200 0 l 1
 0 0 l 1
 0 200 l 1xac
450 200 m 1
 550 200 l 1
 550 0 l 1
 450 0 l 1
 450 200 l 1
650 200 m 1
 750 200 l 1
 750 0 l 1
 650 0 l 1
 650 200 l 1
200 200 m 1
 400 200 l 1
 400 0 l 1
 200 0 l 1
 200 200 l 1
1000 200 m 1xae
 1200 200 l 1
 1200 0 l 1xad
 1000 0 l 1
 1000 200 l 1xae
1200 200 m 1
 1400 200 l 1
 1400 0 l 1
 1200 0 l 1
 1200 200 l 1
1400 200 m 1
 1600 200 l 1
 1600 0 l 1
 1400 0 l 1
 1400 200 l 1
800 200 m 1xae
 1000 200 l 1
 1000 0 l 1
 800 0 l 1
 800 200 l 1xae
EndSplineSet
EndChar

StartChar: 1
Encoding: 49 49 50
Width: 1600
VWidth: 800
Flags: W
HStem: 0 21G<0 200 200 400 450 550 650 750 800 1000 1000 1200 1200 1400 1450 1550> 0 21G<0 200 200 400 450 550 650 750 800 1000 1000 1200 1200 1400 1450 1550> 180 20G<0 200 200 400 450 550 650 750 800 1000 1000 1200 1200 1400 1450 1550> 180 20G<0 200 200 400 450 550 650 750 800 1000 1000 1200 1200 1400 1450 1550>
VStem: 450 100<0 200> 650 100<0 200> 800 200<0 200> 1000 200<0 200> 1200 200<0 200> 1450 100<0 200>
LayerCount: 2
Fore
SplineSet
0 200 m 1xac40
 200 200 l 1
 200 0 l 1
 0 0 l 1
 0 200 l 1xac40
450 200 m 1
 550 200 l 1
 550 0 l 1
 450 0 l 1
 450 200 l 1
650 200 m 1
 750 200 l 1
 750 0 l 1
 650 0 l 1
 650 200 l 1
1200 200 m 1xad40
 1400 200 l 1
 1400 0 l 1xacc0
 1200 0 l 1
 1200 200 l 1xad40
800 200 m 1xae40
 1000 200 l 1
 1000 0 l 1
 800 0 l 1
 800 200 l 1xae40
200 200 m 1
 400 200 l 1
 400 0 l 1
 200 0 l 1
 200 200 l 1
1000 200 m 1
 1200 200 l 1
 1200 0 l 1xad40
 1000 0 l 1
 1000 200 l 1
1450 200 m 1
 1550 200 l 1
 1550 0 l 1
 1450 0 l 1
 1450 200 l 1
EndSplineSet
EndChar

StartChar: 2
Encoding: 50 50 51
Width: 1600
VWidth: 800
Flags: W
HStem: 0 21G<0 200 200 400 450 550 650 750 800 1000 1000 1200 1250 1350 1400 1600> 0 21G<0 200 200 400 450 550 650 750 800 1000 1000 1200 1250 1350 1400 1600> 180 20G<0 200 200 400 450 550 650 750 800 1000 1000 1200 1250 1350 1400 1600> 180 20G<0 200 200 400 450 550 650 750 800 1000 1000 1200 1250 1350 1400 1600>
VStem: 450 100<0 200> 650 100<0 200> 800 200<0 200> 1000 200<0 200> 1250 100<0 200> 1400 200<0 200>
LayerCount: 2
Fore
SplineSet
0 200 m 1xacc0
 200 200 l 1
 200 0 l 1
 0 0 l 1
 0 200 l 1xacc0
450 200 m 1
 550 200 l 1
 550 0 l 1
 450 0 l 1
 450 200 l 1
650 200 m 1
 750 200 l 1
 750 0 l 1
 650 0 l 1
 650 200 l 1
1400 200 m 5
 1600 200 l 5
 1600 0 l 5
 1400 0 l 5
 1400 200 l 5
800 200 m 1xaec0
 1000 200 l 1
 1000 0 l 1
 800 0 l 1
 800 200 l 1xaec0
200 200 m 1
 400 200 l 1
 400 0 l 1
 200 0 l 1
 200 200 l 1
1000 200 m 1
 1200 200 l 1
 1200 0 l 1xadc0
 1000 0 l 1
 1000 200 l 1
1250 200 m 1
 1350 200 l 1
 1350 0 l 1
 1250 0 l 1
 1250 200 l 1
EndSplineSet
EndChar

StartChar: 3
Encoding: 51 51 52
Width: 1600
VWidth: 800
Flags: W
HStem: 0 21G<0 200 200 400 450 550 650 750 800 1000 1000 1200 1250 1350 1450 1550> 0 21G<0 200 200 400 450 550 650 750 800 1000 1000 1200 1250 1350 1450 1550> 180 20G<0 200 200 400 450 550 650 750 800 1000 1000 1200 1250 1350 1450 1550> 180 20G<0 200 200 400 450 550 650 750 800 1000 1000 1200 1250 1350 1450 1550>
VStem: 450 100<0 200> 650 100<0 200> 1250 100<0 200> 1450 100<0 200>
LayerCount: 2
Fore
SplineSet
0 200 m 1xaf
 200 200 l 1
 200 0 l 1
 0 0 l 1
 0 200 l 1xaf
450 200 m 1
 550 200 l 1
 550 0 l 1
 450 0 l 1
 450 200 l 1
650 200 m 1
 750 200 l 1
 750 0 l 1
 650 0 l 1
 650 200 l 1
800 200 m 1
 1000 200 l 1
 1000 0 l 1
 800 0 l 1
 800 200 l 1
200 200 m 1
 400 200 l 1
 400 0 l 1
 200 0 l 1
 200 200 l 1
1000 200 m 1
 1200 200 l 1
 1200 0 l 1
 1000 0 l 1
 1000 200 l 1
1250 200 m 1
 1350 200 l 1
 1350 0 l 1
 1250 0 l 1
 1250 200 l 1
1450 200 m 5
 1550 200 l 5
 1550 0 l 5
 1450 0 l 5
 1450 200 l 5
EndSplineSet
EndChar

StartChar: 4
Encoding: 52 52 53
Width: 1600
VWidth: 800
Flags: W
HStem: 0 21G<0 200 200 400 450 550 650 750 800 1000 1050 1150 1200 1400 1400 1600> 0 21G<0 200 200 400 450 550 650 750 800 1000 1050 1150 1200 1400 1400 1600> 180 20G<0 200 200 400 450 550 650 750 800 1000 1050 1150 1200 1400 1400 1600> 180 20G<0 200 200 400 450 550 650 750 800 1000 1050 1150 1200 1400 1400 1600>
VStem: 450 100<0 200> 650 100<0 200> 800 200<0 200> 1050 100<0 200>
LayerCount: 2
Fore
SplineSet
0 200 m 1xaf
 200 200 l 1
 200 0 l 1
 0 0 l 1
 0 200 l 1xaf
450 200 m 1
 550 200 l 1
 550 0 l 1
 450 0 l 1
 450 200 l 1
650 200 m 1
 750 200 l 1
 750 0 l 1
 650 0 l 1
 650 200 l 1
800 200 m 1
 1000 200 l 1
 1000 0 l 1
 800 0 l 1
 800 200 l 1
200 200 m 1
 400 200 l 1
 400 0 l 1
 200 0 l 1
 200 200 l 1
1050 200 m 1
 1150 200 l 1
 1150 0 l 1
 1050 0 l 1
 1050 200 l 1
1200 200 m 5
 1400 200 l 5
 1400 0 l 5
 1200 0 l 5
 1200 200 l 5
1400 200 m 5
 1600 200 l 5
 1600 0 l 5
 1400 0 l 5
 1400 200 l 5
EndSplineSet
EndChar

StartChar: 5
Encoding: 53 53 54
Width: 1600
VWidth: 800
Flags: W
HStem: 0 21G<0 200 200 400 450 550 650 750 800 1000 1050 1150 1200 1400 1450 1550> 0 21G<0 200 200 400 450 550 650 750 800 1000 1050 1150 1200 1400 1450 1550> 180 20G<0 200 200 400 450 550 650 750 800 1000 1050 1150 1200 1400 1450 1550> 180 20G<0 200 200 400 450 550 650 750 800 1000 1050 1150 1200 1400 1450 1550>
VStem: 450 100<0 200> 650 100<0 200> 800 200<0 200> 1050 100<0 200> 1200 200<0 200> 1450 100<0 200>
LayerCount: 2
Fore
SplineSet
0 200 m 1xafc0
 200 200 l 1
 200 0 l 1
 0 0 l 1
 0 200 l 1xafc0
450 200 m 1
 550 200 l 1
 550 0 l 1
 450 0 l 1
 450 200 l 1
650 200 m 1
 750 200 l 1
 750 0 l 1
 650 0 l 1
 650 200 l 1
800 200 m 1
 1000 200 l 1
 1000 0 l 1
 800 0 l 1
 800 200 l 1
200 200 m 1
 400 200 l 1
 400 0 l 1
 200 0 l 1
 200 200 l 1
1050 200 m 1
 1150 200 l 1
 1150 0 l 1
 1050 0 l 1
 1050 200 l 1
1200 200 m 1
 1400 200 l 1
 1400 0 l 1
 1200 0 l 1
 1200 200 l 1
1450 200 m 5
 1550 200 l 5
 1550 0 l 5
 1450 0 l 5
 1450 200 l 5
EndSplineSet
EndChar

StartChar: 6
Encoding: 54 54 55
Width: 1600
VWidth: 800
Flags: W
HStem: 0 21G<0 200 200 400 450 550 650 750 800 1000 1050 1150 1250 1350 1400 1600> 0 21G<0 200 200 400 450 550 650 750 800 1000 1050 1150 1250 1350 1400 1600> 180 20G<0 200 200 400 450 550 650 750 800 1000 1050 1150 1250 1350 1400 1600> 180 20G<0 200 200 400 450 550 650 750 800 1000 1050 1150 1250 1350 1400 1600>
VStem: 450 100<0 200> 650 100<0 200> 800 200<0 200> 1050 100<0 200> 1250 100<0 200> 1400 200<0 200>
LayerCount: 2
Fore
SplineSet
0 200 m 1xafc0
 200 200 l 1
 200 0 l 1
 0 0 l 1
 0 200 l 1xafc0
450 200 m 1
 550 200 l 1
 550 0 l 1
 450 0 l 1
 450 200 l 1
650 200 m 1
 750 200 l 1
 750 0 l 1
 650 0 l 1
 650 200 l 1
800 200 m 1
 1000 200 l 1
 1000 0 l 1
 800 0 l 1
 800 200 l 1
200 200 m 1
 400 200 l 1
 400 0 l 1
 200 0 l 1
 200 200 l 1
1050 200 m 1
 1150 200 l 1
 1150 0 l 1
 1050 0 l 1
 1050 200 l 1
1400 200 m 5
 1600 200 l 5
 1600 0 l 5
 1400 0 l 5
 1400 200 l 5
1250 200 m 1
 1350 200 l 1
 1350 0 l 1
 1250 0 l 1
 1250 200 l 1
EndSplineSet
EndChar

StartChar: 7
Encoding: 55 55 56
Width: 1600
VWidth: 800
Flags: W
HStem: 0 21G<0 200 200 400 450 550 650 750 800 1000 1050 1150 1250 1350 1450 1550> 0 21G<0 200 200 400 450 550 650 750 800 1000 1050 1150 1250 1350 1450 1550> 180 20G<0 200 200 400 450 550 650 750 800 1000 1050 1150 1250 1350 1450 1550> 180 20G<0 200 200 400 450 550 650 750 800 1000 1050 1150 1250 1350 1450 1550>
VStem: 450 100<0 200> 650 100<0 200> 800 200<0 200> 1050 100<0 200> 1250 100<0 200> 1450 100<0 200>
LayerCount: 2
Fore
SplineSet
0 200 m 1xafc0
 200 200 l 1
 200 0 l 1
 0 0 l 1
 0 200 l 1xafc0
450 200 m 1
 550 200 l 1
 550 0 l 1
 450 0 l 1
 450 200 l 1
650 200 m 1
 750 200 l 1
 750 0 l 1
 650 0 l 1
 650 200 l 1
800 200 m 1
 1000 200 l 1
 1000 0 l 1
 800 0 l 1
 800 200 l 1
200 200 m 1
 400 200 l 1
 400 0 l 1
 200 0 l 1
 200 200 l 1
1050 200 m 1
 1150 200 l 1
 1150 0 l 1
 1050 0 l 1
 1050 200 l 1
1250 200 m 1
 1350 200 l 1
 1350 0 l 1
 1250 0 l 1
 1250 200 l 1
1450 200 m 1
 1550 200 l 1
 1550 0 l 1
 1450 0 l 1
 1450 200 l 1
EndSplineSet
EndChar

StartChar: 8
Encoding: 56 56 57
Width: 1600
VWidth: 800
Flags: W
HStem: 0 21G<0 200 200 400 450 550 650 750 850 950 1000 1200 1200 1400 1400 1600> 0 21G<0 200 200 400 450 550 650 750 850 950 1000 1200 1200 1400 1400 1600> 180 20G<0 200 200 400 450 550 650 750 850 950 1000 1200 1200 1400 1400 1600> 180 20G<0 200 200 400 450 550 650 750 850 950 1000 1200 1200 1400 1400 1600>
VStem: 450 100<0 200> 650 100<0 200> 850 100<0 200> 1000 200<0 200>
LayerCount: 2
Fore
SplineSet
0 200 m 1xaf
 200 200 l 1
 200 0 l 1
 0 0 l 1
 0 200 l 1xaf
450 200 m 1
 550 200 l 1
 550 0 l 1
 450 0 l 1
 450 200 l 1
650 200 m 1
 750 200 l 1
 750 0 l 1
 650 0 l 1
 650 200 l 1
200 200 m 1
 400 200 l 1
 400 0 l 1
 200 0 l 1
 200 200 l 1
1000 200 m 5
 1200 200 l 5
 1200 0 l 5
 1000 0 l 5
 1000 200 l 5
850 200 m 1
 950 200 l 1
 950 0 l 1
 850 0 l 1
 850 200 l 1
1200 200 m 5
 1400 200 l 5
 1400 0 l 5
 1200 0 l 5
 1200 200 l 5
1400 200 m 5
 1600 200 l 5
 1600 0 l 5
 1400 0 l 5
 1400 200 l 5
EndSplineSet
EndChar

StartChar: 9
Encoding: 57 57 58
Width: 1600
VWidth: 800
Flags: W
HStem: 0 21G<0 200 200 400 450 550 650 750 850 950 1000 1200 1200 1400 1450 1550> 0 21G<0 200 200 400 450 550 650 750 850 950 1000 1200 1200 1400 1450 1550> 180 20G<0 200 200 400 450 550 650 750 850 950 1000 1200 1200 1400 1450 1550> 180 20G<0 200 200 400 450 550 650 750 850 950 1000 1200 1200 1400 1450 1550>
VStem: 450 100<0 200> 650 100<0 200> 850 100<0 200> 1000 200<0 200> 1200 200<0 200> 1450 100<0 200>
LayerCount: 2
Fore
SplineSet
0 200 m 1xae40
 200 200 l 1
 200 0 l 1
 0 0 l 1
 0 200 l 1xae40
450 200 m 1
 550 200 l 1
 550 0 l 1
 450 0 l 1
 450 200 l 1
650 200 m 1
 750 200 l 1
 750 0 l 1
 650 0 l 1
 650 200 l 1
200 200 m 1
 400 200 l 1
 400 0 l 1
 200 0 l 1
 200 200 l 1
1000 200 m 1xaf40
 1200 200 l 1
 1200 0 l 1
 1000 0 l 1
 1000 200 l 1xaf40
850 200 m 1
 950 200 l 1
 950 0 l 1
 850 0 l 1
 850 200 l 1
1200 200 m 1
 1400 200 l 1
 1400 0 l 1xaec0
 1200 0 l 1
 1200 200 l 1
1450 200 m 5
 1550 200 l 5
 1550 0 l 5
 1450 0 l 5
 1450 200 l 5
EndSplineSet
EndChar

StartChar: g
Encoding: 103 103 59
Width: 1600
VWidth: 800
Flags: W
HStem: 0 21G<0 200 250 350 450 550 600 800 800 1000 1050 1150 1250 1350 1450 1550> 0 21G<0 200 250 350 450 550 600 800 800 1000 1050 1150 1250 1350 1450 1550> 180 20G<0 200 250 350 450 550 600 800 800 1000 1050 1150 1250 1350 1450 1550> 180 20G<0 200 250 350 450 550 600 800 800 1000 1050 1150 1250 1350 1450 1550>
VStem: 0 200<0 200> 250 100<0 200> 450 100<0 200> 1050 100<0 200> 1250 100<0 200> 1450 100<0 200>
LayerCount: 2
Fore
SplineSet
0 200 m 1xafc0
 200 200 l 1
 200 0 l 1
 0 0 l 1
 0 200 l 1xafc0
250 200 m 1
 350 200 l 1
 350 0 l 1
 250 0 l 1
 250 200 l 1
450 200 m 1
 550 200 l 1
 550 0 l 1
 450 0 l 1
 450 200 l 1
600 200 m 1
 800 200 l 1
 800 0 l 1
 600 0 l 1
 600 200 l 1
800 200 m 1
 1000 200 l 1
 1000 0 l 1
 800 0 l 1
 800 200 l 1
1050 200 m 1
 1150 200 l 1
 1150 0 l 1
 1050 0 l 1
 1050 200 l 1
1250 200 m 1
 1350 200 l 1
 1350 0 l 1
 1250 0 l 1
 1250 200 l 1
1450 200 m 5
 1550 200 l 5
 1550 0 l 5
 1450 0 l 5
 1450 200 l 5
EndSplineSet
EndChar

StartChar: z
Encoding: 122 122 60
Width: 1600
VWidth: 800
Flags: W
HStem: 0 21G<0 200 250 350 450 550 650 750 850 950 1000 1200 1250 1350 1400 1600> 0 21G<0 200 250 350 450 550 650 750 850 950 1000 1200 1250 1350 1400 1600> 180 20G<0 200 250 350 450 550 650 750 850 950 1000 1200 1250 1350 1400 1600> 180 20G<0 200 250 350 450 550 650 750 850 950 1000 1200 1250 1350 1400 1600>
VStem: 0 200<0 200> 250 100<0 200> 450 100<0 200> 650 100<0 200> 850 100<0 200> 1000 200<0 200> 1250 100<0 200> 1400 200<0 200>
LayerCount: 2
Fore
SplineSet
0 200 m 1xaff0
 200 200 l 1
 200 0 l 1
 0 0 l 1
 0 200 l 1xaff0
250 200 m 1
 350 200 l 1
 350 0 l 1
 250 0 l 1
 250 200 l 1
450 200 m 1
 550 200 l 1
 550 0 l 1
 450 0 l 1
 450 200 l 1
650 200 m 1
 750 200 l 1
 750 0 l 1
 650 0 l 1
 650 200 l 1
1400 200 m 5
 1600 200 l 5
 1600 0 l 5
 1400 0 l 5
 1400 200 l 5
1000 200 m 1
 1200 200 l 1
 1200 0 l 1
 1000 0 l 1
 1000 200 l 1
850 200 m 1
 950 200 l 1
 950 0 l 1
 850 0 l 1
 850 200 l 1
1250 200 m 1
 1350 200 l 1
 1350 0 l 1
 1250 0 l 1
 1250 200 l 1
EndSplineSet
EndChar

StartChar: Z
Encoding: 90 90 61
Width: 1600
VWidth: 800
Flags: W
HStem: 0 21G<0 200 250 350 400 600 650 750 850 950 1000 1200 1250 1350 1400 1600> 0 21G<0 200 250 350 400 600 650 750 850 950 1000 1200 1250 1350 1400 1600> 180 20G<0 200 250 350 400 600 650 750 850 950 1000 1200 1250 1350 1400 1600> 180 20G<0 200 250 350 400 600 650 750 850 950 1000 1200 1250 1350 1400 1600>
VStem: 0 200<0 200> 250 100<0 200> 400 200<0 200> 650 100<0 200> 850 100<0 200> 1000 200<0 200> 1250 100<0 200> 1400 200<0 200>
LayerCount: 2
Fore
SplineSet
0 200 m 1xaff0
 200 200 l 1
 200 0 l 1
 0 0 l 1
 0 200 l 1xaff0
250 200 m 1
 350 200 l 1
 350 0 l 1
 250 0 l 1
 250 200 l 1
400 200 m 1
 600 200 l 1
 600 0 l 1
 400 0 l 1
 400 200 l 1
650 200 m 1
 750 200 l 1
 750 0 l 1
 650 0 l 1
 650 200 l 1
850 200 m 1
 950 200 l 1
 950 0 l 1
 850 0 l 1
 850 200 l 1
1000 200 m 1
 1200 200 l 1
 1200 0 l 1
 1000 0 l 1
 1000 200 l 1
1250 200 m 1
 1350 200 l 1
 1350 0 l 1
 1250 0 l 1
 1250 200 l 1
1400 200 m 5
 1600 200 l 5
 1600 0 l 5
 1400 0 l 5
 1400 200 l 5
EndSplineSet
EndChar

StartChar: numbersign
Encoding: 35 35 62
Width: 1600
VWidth: 800
Flags: W
HStem: 0 21G<0 200 200 400 450 550 600 800 800 1000 1000 1200 1250 1350 1450 1550> 0 21G<0 200 200 400 450 550 600 800 800 1000 1000 1200 1250 1350 1450 1550> 180 20G<0 200 200 400 450 550 600 800 800 1000 1000 1200 1250 1350 1450 1550> 180 20G<0 200 200 400 450 550 600 800 800 1000 1000 1200 1250 1350 1450 1550>
VStem: 450 100<0 200> 600 200<0 200> 1250 100<0 200> 1450 100<0 200>
LayerCount: 2
Fore
SplineSet
0 200 m 1xaf
 200 200 l 1
 200 0 l 1
 0 0 l 1
 0 200 l 1xaf
450 200 m 1
 550 200 l 1
 550 0 l 1
 450 0 l 1
 450 200 l 1
200 200 m 1
 400 200 l 1
 400 0 l 1
 200 0 l 1
 200 200 l 1
800 200 m 1
 1000 200 l 1
 1000 0 l 1
 800 0 l 1
 800 200 l 1
1000 200 m 1
 1200 200 l 1
 1200 0 l 1
 1000 0 l 1
 1000 200 l 1
600 200 m 1
 800 200 l 1
 800 0 l 1
 600 0 l 1
 600 200 l 1
1250 200 m 1
 1350 200 l 1
 1350 0 l 1
 1250 0 l 1
 1250 200 l 1
1450 200 m 1
 1550 200 l 1
 1550 0 l 1
 1450 0 l 1
 1450 200 l 1
EndSplineSet
Validated: 5
EndChar

StartChar: ampersand
Encoding: 38 38 63
Width: 1600
VWidth: 800
Flags: W
HStem: 0 21G<0 200 200 400 450 550 600 800 800 1000 1050 1150 1250 1350 1400 1600> 0 21G<0 200 200 400 450 550 600 800 800 1000 1050 1150 1250 1350 1400 1600> 180 20G<0 200 200 400 450 550 600 800 800 1000 1050 1150 1250 1350 1400 1600> 180 20G<0 200 200 400 450 550 600 800 800 1000 1050 1150 1250 1350 1400 1600>
VStem: 450 100<0 200> 1050 100<0 200> 1250 100<0 200> 1400 200<0 200>
LayerCount: 2
Fore
SplineSet
0 200 m 1xaf
 200 200 l 1
 200 0 l 1
 0 0 l 1
 0 200 l 1xaf
450 200 m 1
 550 200 l 1
 550 0 l 1
 450 0 l 1
 450 200 l 1
200 200 m 1
 400 200 l 1
 400 0 l 1
 200 0 l 1
 200 200 l 1
800 200 m 1
 1000 200 l 1
 1000 0 l 1
 800 0 l 1
 800 200 l 1
600 200 m 1
 800 200 l 1
 800 0 l 1
 600 0 l 1
 600 200 l 1
1400 200 m 5
 1600 200 l 5
 1600 0 l 5
 1400 0 l 5
 1400 200 l 5
1050 200 m 1
 1150 200 l 1
 1150 0 l 1
 1050 0 l 1
 1050 200 l 1
1250 200 m 1
 1350 200 l 1
 1350 0 l 1
 1250 0 l 1
 1250 200 l 1
EndSplineSet
Validated: 5
EndChar

StartChar: exclam
Encoding: 33 33 64
Width: 1600
VWidth: 800
Flags: W
HStem: 0 21G<0 200 200 400 450 550 600 800 800 1000 1000 1200 1200 1400 1450 1550> 0 21G<0 200 200 400 450 550 600 800 800 1000 1000 1200 1200 1400 1450 1550> 180 20G<0 200 200 400 450 550 600 800 800 1000 1000 1200 1200 1400 1450 1550> 180 20G<0 200 200 400 450 550 600 800 800 1000 1000 1200 1200 1400 1450 1550>
VStem: 450 100<0 200> 600 200<0 200> 1450 100<0 200>
LayerCount: 2
Fore
SplineSet
0 200 m 1xae
 200 200 l 1
 200 0 l 1
 0 0 l 1
 0 200 l 1xae
450 200 m 1
 550 200 l 1
 550 0 l 1
 450 0 l 1
 450 200 l 1
1450 200 m 1
 1550 200 l 1
 1550 0 l 1
 1450 0 l 1
 1450 200 l 1
200 200 m 1
 400 200 l 1
 400 0 l 1
 200 0 l 1
 200 200 l 1
800 200 m 1
 1000 200 l 1
 1000 0 l 1
 800 0 l 1
 800 200 l 1
1000 200 m 1
 1200 200 l 1
 1200 0 l 1
 1000 0 l 1
 1000 200 l 1
1200 200 m 1
 1400 200 l 1
 1400 0 l 1
 1200 0 l 1
 1200 200 l 1
600 200 m 1
 800 200 l 1
 800 0 l 1
 600 0 l 1
 600 200 l 1
EndSplineSet
Validated: 5
EndChar

StartChar: quotedbl
Encoding: 34 34 65
Width: 1600
VWidth: 800
Flags: W
HStem: 0 21G<0 200 200 400 450 550 600 800 800 1000 1000 1200 1250 1350 1400 1600> 0 21G<0 200 200 400 450 550 600 800 800 1000 1000 1200 1250 1350 1400 1600> 180 20G<0 200 200 400 450 550 600 800 800 1000 1000 1200 1250 1350 1400 1600> 180 20G<0 200 200 400 450 550 600 800 800 1000 1000 1200 1250 1350 1400 1600>
VStem: 450 100<0 200> 600 200<0 200> 1250 100<0 200> 1400 200<0 200>
LayerCount: 2
Fore
SplineSet
0 200 m 1xaf
 200 200 l 1
 200 0 l 1
 0 0 l 1
 0 200 l 1xaf
450 200 m 1
 550 200 l 1
 550 0 l 1
 450 0 l 1
 450 200 l 1
200 200 m 1
 400 200 l 1
 400 0 l 1
 200 0 l 1
 200 200 l 1
800 200 m 1
 1000 200 l 1
 1000 0 l 1
 800 0 l 1
 800 200 l 1
1000 200 m 1
 1200 200 l 1
 1200 0 l 1
 1000 0 l 1
 1000 200 l 1
600 200 m 1
 800 200 l 1
 800 0 l 1
 600 0 l 1
 600 200 l 1
1400 200 m 1
 1600 200 l 1
 1600 0 l 1
 1400 0 l 1
 1400 200 l 1
1250 200 m 1
 1350 200 l 1
 1350 0 l 1
 1250 0 l 1
 1250 200 l 1
EndSplineSet
Validated: 5
EndChar

StartChar: dollar
Encoding: 36 36 66
Width: 1600
VWidth: 800
Flags: W
HStem: 0 21G<0 200 200 400 450 550 600 800 800 1000 1050 1150 1200 1400 1400 1600> 0 21G<0 200 200 400 450 550 600 800 800 1000 1050 1150 1200 1400 1400 1600> 180 20G<0 200 200 400 450 550 600 800 800 1000 1050 1150 1200 1400 1400 1600> 180 20G<0 200 200 400 450 550 600 800 800 1000 1050 1150 1200 1400 1400 1600>
VStem: 450 100<0 200> 1050 100<0 200>
LayerCount: 2
Fore
SplineSet
0 200 m 1xac
 200 200 l 1
 200 0 l 1
 0 0 l 1
 0 200 l 1xac
450 200 m 1
 550 200 l 1
 550 0 l 1
 450 0 l 1
 450 200 l 1
200 200 m 1
 400 200 l 1
 400 0 l 1
 200 0 l 1
 200 200 l 1
800 200 m 1
 1000 200 l 1
 1000 0 l 1
 800 0 l 1
 800 200 l 1
600 200 m 1
 800 200 l 1
 800 0 l 1
 600 0 l 1
 600 200 l 1
1200 200 m 1
 1400 200 l 1
 1400 0 l 1
 1200 0 l 1
 1200 200 l 1
1050 200 m 1
 1150 200 l 1
 1150 0 l 1
 1050 0 l 1
 1050 200 l 1
1400 200 m 1
 1600 200 l 1
 1600 0 l 1
 1400 0 l 1
 1400 200 l 1
EndSplineSet
Validated: 5
EndChar

StartChar: percent
Encoding: 37 37 67
Width: 1600
VWidth: 800
Flags: W
HStem: 0 21G<0 200 200 400 450 550 600 800 800 1000 1050 1150 1200 1400 1450 1550> 0 21G<0 200 200 400 450 550 600 800 800 1000 1050 1150 1200 1400 1450 1550> 180 20G<0 200 200 400 450 550 600 800 800 1000 1050 1150 1200 1400 1450 1550> 180 20G<0 200 200 400 450 550 600 800 800 1000 1050 1150 1200 1400 1450 1550>
VStem: 450 100<0 200> 1050 100<0 200> 1200 200<0 200> 1450 100<0 200>
LayerCount: 2
Fore
SplineSet
0 200 m 1xaf
 200 200 l 1
 200 0 l 1
 0 0 l 1
 0 200 l 1xaf
450 200 m 1
 550 200 l 1
 550 0 l 1
 450 0 l 1
 450 200 l 1
200 200 m 1
 400 200 l 1
 400 0 l 1
 200 0 l 1
 200 200 l 1
800 200 m 1
 1000 200 l 1
 1000 0 l 1
 800 0 l 1
 800 200 l 1
600 200 m 1
 800 200 l 1
 800 0 l 1
 600 0 l 1
 600 200 l 1
1200 200 m 1
 1400 200 l 1
 1400 0 l 1
 1200 0 l 1
 1200 200 l 1
1050 200 m 1
 1150 200 l 1
 1150 0 l 1
 1050 0 l 1
 1050 200 l 1
1450 200 m 5
 1550 200 l 5
 1550 0 l 5
 1450 0 l 5
 1450 200 l 5
EndSplineSet
Validated: 5
EndChar

StartChar: quotesingle
Encoding: 39 39 68
Width: 1600
VWidth: 800
Flags: W
HStem: 0 21G<0 200 200 400 450 550 600 800 800 1000 1050 1150 1250 1350 1450 1550> 0 21G<0 200 200 400 450 550 600 800 800 1000 1050 1150 1250 1350 1450 1550> 180 20G<0 200 200 400 450 550 600 800 800 1000 1050 1150 1250 1350 1450 1550> 180 20G<0 200 200 400 450 550 600 800 800 1000 1050 1150 1250 1350 1450 1550>
VStem: 450 100<0 200> 1050 100<0 200> 1250 100<0 200> 1450 100<0 200>
LayerCount: 2
Fore
SplineSet
0 200 m 1xaf
 200 200 l 1
 200 0 l 1
 0 0 l 1
 0 200 l 1xaf
450 200 m 1
 550 200 l 1
 550 0 l 1
 450 0 l 1
 450 200 l 1
200 200 m 1
 400 200 l 1
 400 0 l 1
 200 0 l 1
 200 200 l 1
800 200 m 1
 1000 200 l 1
 1000 0 l 1
 800 0 l 1
 800 200 l 1
600 200 m 1
 800 200 l 1
 800 0 l 1
 600 0 l 1
 600 200 l 1
1050 200 m 1
 1150 200 l 1
 1150 0 l 1
 1050 0 l 1
 1050 200 l 1
1250 200 m 1
 1350 200 l 1
 1350 0 l 1
 1250 0 l 1
 1250 200 l 1
1450 200 m 1
 1550 200 l 1
 1550 0 l 1
 1450 0 l 1
 1450 200 l 1
EndSplineSet
Validated: 5
EndChar

StartChar: parenleft
Encoding: 40 40 69
Width: 1600
VWidth: 800
Flags: W
HStem: 0 21G<0 200 200 400 450 550 600 800 850 950 1000 1200 1200 1400 1400 1600> 0 21G<0 200 200 400 450 550 600 800 850 950 1000 1200 1200 1400 1400 1600> 180 20G<0 200 200 400 450 550 600 800 850 950 1000 1200 1200 1400 1400 1600> 180 20G<0 200 200 400 450 550 600 800 850 950 1000 1200 1200 1400 1400 1600>
VStem: 450 100<0 200> 600 200<0 200> 850 100<0 200> 1000 200<0 200>
LayerCount: 2
Fore
SplineSet
0 200 m 1xaf
 200 200 l 1
 200 0 l 1
 0 0 l 1
 0 200 l 1xaf
450 200 m 1
 550 200 l 1
 550 0 l 1
 450 0 l 1
 450 200 l 1
200 200 m 1
 400 200 l 1
 400 0 l 1
 200 0 l 1
 200 200 l 1
600 200 m 1
 800 200 l 1
 800 0 l 1
 600 0 l 1
 600 200 l 1
1000 200 m 1
 1200 200 l 1
 1200 0 l 1
 1000 0 l 1
 1000 200 l 1
850 200 m 1
 950 200 l 1
 950 0 l 1
 850 0 l 1
 850 200 l 1
1200 200 m 1
 1400 200 l 1
 1400 0 l 1
 1200 0 l 1
 1200 200 l 1
1400 200 m 1
 1600 200 l 1
 1600 0 l 1
 1400 0 l 1
 1400 200 l 1
EndSplineSet
Validated: 5
EndChar

StartChar: parenright
Encoding: 41 41 70
Width: 1600
VWidth: 800
Flags: W
HStem: 0 21G<0 200 200 400 450 550 600 800 850 950 1000 1200 1200 1400 1450 1550> 0 21G<0 200 200 400 450 550 600 800 850 950 1000 1200 1200 1400 1450 1550> 180 20G<0 200 200 400 450 550 600 800 850 950 1000 1200 1200 1400 1450 1550> 180 20G<0 200 200 400 450 550 600 800 850 950 1000 1200 1200 1400 1450 1550>
VStem: 450 100<0 200> 600 200<0 200> 850 100<0 200> 1000 200<0 200> 1200 200<0 200> 1450 100<0 200>
LayerCount: 2
Fore
SplineSet
0 200 m 1xae40
 200 200 l 1
 200 0 l 1
 0 0 l 1
 0 200 l 1xae40
450 200 m 1
 550 200 l 1
 550 0 l 1
 450 0 l 1
 450 200 l 1
200 200 m 1
 400 200 l 1
 400 0 l 1
 200 0 l 1
 200 200 l 1
600 200 m 1
 800 200 l 1
 800 0 l 1
 600 0 l 1
 600 200 l 1
1000 200 m 1xaf40
 1200 200 l 1
 1200 0 l 1
 1000 0 l 1
 1000 200 l 1xaf40
850 200 m 1
 950 200 l 1
 950 0 l 1
 850 0 l 1
 850 200 l 1
1200 200 m 1
 1400 200 l 1
 1400 0 l 1xaec0
 1200 0 l 1
 1200 200 l 1
1450 200 m 5
 1550 200 l 5
 1550 0 l 5
 1450 0 l 5
 1450 200 l 5
EndSplineSet
Validated: 5
EndChar

StartChar: asterisk
Encoding: 42 42 71
Width: 1600
VWidth: 800
Flags: W
HStem: 0 21G<0 200 200 400 450 550 600 800 850 950 1000 1200 1250 1350 1400 1600> 0 21G<0 200 200 400 450 550 600 800 850 950 1000 1200 1250 1350 1400 1600> 180 20G<0 200 200 400 450 550 600 800 850 950 1000 1200 1250 1350 1400 1600> 180 20G<0 200 200 400 450 550 600 800 850 950 1000 1200 1250 1350 1400 1600>
VStem: 450 100<0 200> 600 200<0 200> 850 100<0 200> 1000 200<0 200> 1250 100<0 200> 1400 200<0 200>
LayerCount: 2
Fore
SplineSet
0 200 m 1xafc0
 200 200 l 1
 200 0 l 1
 0 0 l 1
 0 200 l 1xafc0
450 200 m 1
 550 200 l 1
 550 0 l 1
 450 0 l 1
 450 200 l 1
200 200 m 1
 400 200 l 1
 400 0 l 1
 200 0 l 1
 200 200 l 1
600 200 m 1
 800 200 l 1
 800 0 l 1
 600 0 l 1
 600 200 l 1
1000 200 m 1
 1200 200 l 1
 1200 0 l 1
 1000 0 l 1
 1000 200 l 1
850 200 m 1
 950 200 l 1
 950 0 l 1
 850 0 l 1
 850 200 l 1
1400 200 m 5
 1600 200 l 5
 1600 0 l 5
 1400 0 l 5
 1400 200 l 5
1250 200 m 1
 1350 200 l 1
 1350 0 l 1
 1250 0 l 1
 1250 200 l 1
EndSplineSet
Validated: 5
EndChar

StartChar: plus
Encoding: 43 43 72
Width: 1600
VWidth: 800
Flags: W
HStem: 0 21G<0 200 200 400 450 550 600 800 850 950 1000 1200 1250 1350 1450 1550> 0 21G<0 200 200 400 450 550 600 800 850 950 1000 1200 1250 1350 1450 1550> 180 20G<0 200 200 400 450 550 600 800 850 950 1000 1200 1250 1350 1450 1550> 180 20G<0 200 200 400 450 550 600 800 850 950 1000 1200 1250 1350 1450 1550>
VStem: 450 100<0 200> 600 200<0 200> 850 100<0 200> 1000 200<0 200> 1250 100<0 200> 1450 100<0 200>
LayerCount: 2
Fore
SplineSet
0 200 m 1xafc0
 200 200 l 1
 200 0 l 1
 0 0 l 1
 0 200 l 1xafc0
450 200 m 1
 550 200 l 1
 550 0 l 1
 450 0 l 1
 450 200 l 1
200 200 m 1
 400 200 l 1
 400 0 l 1
 200 0 l 1
 200 200 l 1
600 200 m 1
 800 200 l 1
 800 0 l 1
 600 0 l 1
 600 200 l 1
1000 200 m 1
 1200 200 l 1
 1200 0 l 1
 1000 0 l 1
 1000 200 l 1
850 200 m 1
 950 200 l 1
 950 0 l 1
 850 0 l 1
 850 200 l 1
1250 200 m 1
 1350 200 l 1
 1350 0 l 1
 1250 0 l 1
 1250 200 l 1
1450 200 m 5
 1550 200 l 5
 1550 0 l 5
 1450 0 l 5
 1450 200 l 5
EndSplineSet
Validated: 5
EndChar

StartChar: comma
Encoding: 44 44 73
Width: 1600
VWidth: 800
Flags: W
HStem: 0 21G<0 200 200 400 450 550 600 800 850 950 1050 1150 1200 1400 1400 1600> 0 21G<0 200 200 400 450 550 600 800 850 950 1050 1150 1200 1400 1400 1600> 180 20G<0 200 200 400 450 550 600 800 850 950 1050 1150 1200 1400 1400 1600> 180 20G<0 200 200 400 450 550 600 800 850 950 1050 1150 1200 1400 1400 1600>
VStem: 0 200<0 200> 200 200<0 200> 450 100<0 200> 600 200<0 200> 850 100<0 200> 1050 100<0 200>
LayerCount: 2
Fore
SplineSet
0 200 m 1xabc0
 200 200 l 1
 200 0 l 1
 0 0 l 1
 0 200 l 1xabc0
450 200 m 1
 550 200 l 1
 550 0 l 1
 450 0 l 1
 450 200 l 1
200 200 m 1
 400 200 l 1
 400 0 l 1xa7c0
 200 0 l 1
 200 200 l 1
600 200 m 1
 800 200 l 1
 800 0 l 1
 600 0 l 1
 600 200 l 1
850 200 m 1
 950 200 l 1
 950 0 l 1
 850 0 l 1
 850 200 l 1
1200 200 m 1
 1400 200 l 1
 1400 0 l 1
 1200 0 l 1
 1200 200 l 1
1050 200 m 1
 1150 200 l 1
 1150 0 l 1
 1050 0 l 1
 1050 200 l 1
1400 200 m 1
 1600 200 l 1
 1600 0 l 1
 1400 0 l 1
 1400 200 l 1
EndSplineSet
Validated: 5
EndChar

StartChar: hyphen
Encoding: 45 45 74
Width: 1600
VWidth: 800
Flags: W
HStem: 0 21G<0 200 200 400 450 550 600 800 850 950 1050 1150 1200 1400 1450 1550> 0 21G<0 200 200 400 450 550 600 800 850 950 1050 1150 1200 1400 1450 1550> 180 20G<0 200 200 400 450 550 600 800 850 950 1050 1150 1200 1400 1450 1550> 180 20G<0 200 200 400 450 550 600 800 850 950 1050 1150 1200 1400 1450 1550>
VStem: 0 200<0 200> 200 200<0 200> 450 100<0 200> 600 200<0 200> 850 100<0 200> 1050 100<0 200> 1200 200<0 200> 1450 100<0 200>
LayerCount: 2
Fore
SplineSet
0 200 m 1xabf0
 200 200 l 1
 200 0 l 1
 0 0 l 1
 0 200 l 1xabf0
450 200 m 1
 550 200 l 1
 550 0 l 1
 450 0 l 1
 450 200 l 1
200 200 m 1
 400 200 l 1
 400 0 l 1xa7f0
 200 0 l 1
 200 200 l 1
600 200 m 1
 800 200 l 1
 800 0 l 1
 600 0 l 1
 600 200 l 1
850 200 m 1
 950 200 l 1
 950 0 l 1
 850 0 l 1
 850 200 l 1
1200 200 m 1
 1400 200 l 1
 1400 0 l 1
 1200 0 l 1
 1200 200 l 1
1050 200 m 1
 1150 200 l 1
 1150 0 l 1
 1050 0 l 1
 1050 200 l 1
1450 200 m 5
 1550 200 l 5
 1550 0 l 5
 1450 0 l 5
 1450 200 l 5
EndSplineSet
EndChar

StartChar: period
Encoding: 46 46 75
Width: 1600
VWidth: 800
Flags: W
HStem: 0 21G<0 200 200 400 450 550 600 800 850 950 1050 1150 1250 1350 1400 1600> 0 21G<0 200 200 400 450 550 600 800 850 950 1050 1150 1250 1350 1400 1600> 180 20G<0 200 200 400 450 550 600 800 850 950 1050 1150 1250 1350 1400 1600> 180 20G<0 200 200 400 450 550 600 800 850 950 1050 1150 1250 1350 1400 1600>
VStem: 0 200<0 200> 200 200<0 200> 450 100<0 200> 600 200<0 200> 850 100<0 200> 1050 100<0 200> 1250 100<0 200> 1400 200<0 200>
LayerCount: 2
Fore
SplineSet
0 200 m 1xabf0
 200 200 l 1
 200 0 l 1
 0 0 l 1
 0 200 l 1xabf0
450 200 m 1
 550 200 l 1
 550 0 l 1
 450 0 l 1
 450 200 l 1
200 200 m 1
 400 200 l 1
 400 0 l 1xa7f0
 200 0 l 1
 200 200 l 1
600 200 m 1
 800 200 l 1
 800 0 l 1
 600 0 l 1
 600 200 l 1
850 200 m 1
 950 200 l 1
 950 0 l 1
 850 0 l 1
 850 200 l 1
1050 200 m 1
 1150 200 l 1
 1150 0 l 1
 1050 0 l 1
 1050 200 l 1
1400 200 m 5
 1600 200 l 5
 1600 0 l 5
 1400 0 l 5
 1400 200 l 5
1250 200 m 1
 1350 200 l 1
 1350 0 l 1
 1250 0 l 1
 1250 200 l 1
EndSplineSet
EndChar

StartChar: slash
Encoding: 47 47 76
Width: 1600
VWidth: 800
Flags: W
HStem: 0 21G<0 200 200 400 450 550 600 800 850 950 1050 1150 1250 1350 1450 1550> 0 21G<0 200 200 400 450 550 600 800 850 950 1050 1150 1250 1350 1450 1550> 180 20G<0 200 200 400 450 550 600 800 850 950 1050 1150 1250 1350 1450 1550> 180 20G<0 200 200 400 450 550 600 800 850 950 1050 1150 1250 1350 1450 1550>
VStem: 0 200<0 200> 200 200<0 200> 450 100<0 200> 600 200<0 200> 850 100<0 200> 1050 100<0 200> 1250 100<0 200> 1450 100<0 200>
LayerCount: 2
Fore
SplineSet
0 200 m 1xabf0
 200 200 l 1
 200 0 l 1
 0 0 l 1
 0 200 l 1xabf0
450 200 m 1
 550 200 l 1
 550 0 l 1
 450 0 l 1
 450 200 l 1
200 200 m 1
 400 200 l 1
 400 0 l 1xa7f0
 200 0 l 1
 200 200 l 1
600 200 m 1
 800 200 l 1
 800 0 l 1
 600 0 l 1
 600 200 l 1
850 200 m 1
 950 200 l 1
 950 0 l 1
 850 0 l 1
 850 200 l 1
1050 200 m 1
 1150 200 l 1
 1150 0 l 1
 1050 0 l 1
 1050 200 l 1
1250 200 m 1
 1350 200 l 1
 1350 0 l 1
 1250 0 l 1
 1250 200 l 1
1450 200 m 5
 1550 200 l 5
 1550 0 l 5
 1450 0 l 5
 1450 200 l 5
EndSplineSet
EndChar

StartChar: colon
Encoding: 58 58 77
Width: 1600
VWidth: 800
Flags: W
HStem: 0 21G<0 200 200 400 450 550 650 750 850 950 1000 1200 1250 1350 1400 1600> 0 21G<0 200 200 400 450 550 650 750 850 950 1000 1200 1250 1350 1400 1600> 180 20G<0 200 200 400 450 550 650 750 850 950 1000 1200 1250 1350 1400 1600> 180 20G<0 200 200 400 450 550 650 750 850 950 1000 1200 1250 1350 1400 1600>
VStem: 0 200<0 200> 200 200<0 200> 450 100<0 200> 650 100<0 200> 850 100<0 200> 1000 200<0 200> 1250 100<0 200> 1400 200<0 200>
LayerCount: 2
Fore
SplineSet
0 200 m 1xabf0
 200 200 l 1
 200 0 l 1
 0 0 l 1
 0 200 l 1xabf0
450 200 m 1
 550 200 l 1
 550 0 l 1
 450 0 l 1
 450 200 l 1
200 200 m 1
 400 200 l 1
 400 0 l 1xa7f0
 200 0 l 1
 200 200 l 1
650 200 m 1
 750 200 l 1
 750 0 l 1
 650 0 l 1
 650 200 l 1
850 200 m 1
 950 200 l 1
 950 0 l 1
 850 0 l 1
 850 200 l 1
1250 200 m 1
 1350 200 l 1
 1350 0 l 1
 1250 0 l 1
 1250 200 l 1
1000 200 m 1
 1200 200 l 1
 1200 0 l 1
 1000 0 l 1
 1000 200 l 1
1400 200 m 5
 1600 200 l 5
 1600 0 l 5
 1400 0 l 5
 1400 200 l 5
EndSplineSet
EndChar

StartChar: semicolon
Encoding: 59 59 78
Width: 1600
VWidth: 800
Flags: W
HStem: 0 21G<0 200 200 400 450 550 650 750 850 950 1000 1200 1250 1350 1450 1550> 0 21G<0 200 200 400 450 550 650 750 850 950 1000 1200 1250 1350 1450 1550> 180 20G<0 200 200 400 450 550 650 750 850 950 1000 1200 1250 1350 1450 1550> 180 20G<0 200 200 400 450 550 650 750 850 950 1000 1200 1250 1350 1450 1550>
VStem: 0 200<0 200> 200 200<0 200> 450 100<0 200> 650 100<0 200> 850 100<0 200> 1000 200<0 200> 1250 100<0 200> 1450 100<0 200>
LayerCount: 2
Fore
SplineSet
0 200 m 1xabf0
 200 200 l 1
 200 0 l 1
 0 0 l 1
 0 200 l 1xabf0
450 200 m 1
 550 200 l 1
 550 0 l 1
 450 0 l 1
 450 200 l 1
200 200 m 1
 400 200 l 1
 400 0 l 1xa7f0
 200 0 l 1
 200 200 l 1
650 200 m 1
 750 200 l 1
 750 0 l 1
 650 0 l 1
 650 200 l 1
850 200 m 1
 950 200 l 1
 950 0 l 1
 850 0 l 1
 850 200 l 1
1250 200 m 1
 1350 200 l 1
 1350 0 l 1
 1250 0 l 1
 1250 200 l 1
1000 200 m 1
 1200 200 l 1
 1200 0 l 1
 1000 0 l 1
 1000 200 l 1
1450 200 m 5
 1550 200 l 5
 1550 0 l 5
 1450 0 l 5
 1450 200 l 5
EndSplineSet
EndChar

StartChar: less
Encoding: 60 60 79
Width: 1600
VWidth: 800
Flags: W
HStem: 0 21G<0 200 200 400 450 550 650 750 850 950 1050 1150 1200 1400 1400 1600> 0 21G<0 200 200 400 450 550 650 750 850 950 1050 1150 1200 1400 1400 1600> 180 20G<0 200 200 400 450 550 650 750 850 950 1050 1150 1200 1400 1400 1600> 180 20G<0 200 200 400 450 550 650 750 850 950 1050 1150 1200 1400 1400 1600>
VStem: 0 200<0 200> 200 200<0 200> 450 100<0 200> 650 100<0 200> 850 100<0 200> 1050 100<0 200>
LayerCount: 2
Fore
SplineSet
0 200 m 1xabc0
 200 200 l 1
 200 0 l 1
 0 0 l 1
 0 200 l 1xabc0
450 200 m 1
 550 200 l 1
 550 0 l 1
 450 0 l 1
 450 200 l 1
200 200 m 1
 400 200 l 1
 400 0 l 1xa7c0
 200 0 l 1
 200 200 l 1
650 200 m 1
 750 200 l 1
 750 0 l 1
 650 0 l 1
 650 200 l 1
850 200 m 1
 950 200 l 1
 950 0 l 1
 850 0 l 1
 850 200 l 1
1200 200 m 5
 1400 200 l 5
 1400 0 l 5
 1200 0 l 5
 1200 200 l 5
1050 200 m 1
 1150 200 l 1
 1150 0 l 1
 1050 0 l 1
 1050 200 l 1
1400 200 m 5
 1600 200 l 5
 1600 0 l 5
 1400 0 l 5
 1400 200 l 5
EndSplineSet
EndChar

StartChar: equal
Encoding: 61 61 80
Width: 1600
VWidth: 800
Flags: W
HStem: 0 21G<0 200 200 400 450 550 650 750 850 950 1050 1150 1200 1400 1450 1550> 0 21G<0 200 200 400 450 550 650 750 850 950 1050 1150 1200 1400 1450 1550> 180 20G<0 200 200 400 450 550 650 750 850 950 1050 1150 1200 1400 1450 1550> 180 20G<0 200 200 400 450 550 650 750 850 950 1050 1150 1200 1400 1450 1550>
VStem: 0 200<0 200> 200 200<0 200> 450 100<0 200> 650 100<0 200> 850 100<0 200> 1050 100<0 200> 1200 200<0 200> 1450 100<0 200>
LayerCount: 2
Fore
SplineSet
0 200 m 1xabf0
 200 200 l 1
 200 0 l 1
 0 0 l 1
 0 200 l 1xabf0
450 200 m 1
 550 200 l 1
 550 0 l 1
 450 0 l 1
 450 200 l 1
200 200 m 1
 400 200 l 1
 400 0 l 1xa7f0
 200 0 l 1
 200 200 l 1
650 200 m 1
 750 200 l 1
 750 0 l 1
 650 0 l 1
 650 200 l 1
850 200 m 1
 950 200 l 1
 950 0 l 1
 850 0 l 1
 850 200 l 1
1200 200 m 1
 1400 200 l 1
 1400 0 l 1
 1200 0 l 1
 1200 200 l 1
1050 200 m 1
 1150 200 l 1
 1150 0 l 1
 1050 0 l 1
 1050 200 l 1
1450 200 m 5
 1550 200 l 5
 1550 0 l 5
 1450 0 l 5
 1450 200 l 5
EndSplineSet
EndChar

StartChar: greater
Encoding: 62 62 81
Width: 1600
VWidth: 800
Flags: W
HStem: 0 21G<0 200 200 400 450 550 650 750 850 950 1050 1150 1250 1350 1400 1600> 0 21G<0 200 200 400 450 550 650 750 850 950 1050 1150 1250 1350 1400 1600> 180 20G<0 200 200 400 450 550 650 750 850 950 1050 1150 1250 1350 1400 1600> 180 20G<0 200 200 400 450 550 650 750 850 950 1050 1150 1250 1350 1400 1600>
VStem: 0 200<0 200> 200 200<0 200> 450 100<0 200> 650 100<0 200> 850 100<0 200> 1050 100<0 200> 1250 100<0 200> 1400 200<0 200>
LayerCount: 2
Fore
SplineSet
0 200 m 1xabf0
 200 200 l 1
 200 0 l 1
 0 0 l 1
 0 200 l 1xabf0
450 200 m 1
 550 200 l 1
 550 0 l 1
 450 0 l 1
 450 200 l 1
200 200 m 1
 400 200 l 1
 400 0 l 1xa7f0
 200 0 l 1
 200 200 l 1
650 200 m 1
 750 200 l 1
 750 0 l 1
 650 0 l 1
 650 200 l 1
850 200 m 1
 950 200 l 1
 950 0 l 1
 850 0 l 1
 850 200 l 1
1400 200 m 1
 1600 200 l 1
 1600 0 l 1
 1400 0 l 1
 1400 200 l 1
1050 200 m 1
 1150 200 l 1
 1150 0 l 1
 1050 0 l 1
 1050 200 l 1
1250 200 m 1
 1350 200 l 1
 1350 0 l 1
 1250 0 l 1
 1250 200 l 1
EndSplineSet
EndChar

StartChar: question
Encoding: 63 63 82
Width: 1600
VWidth: 800
Flags: W
HStem: 0 21G<0 200 200 400 450 550 650 750 850 950 1050 1150 1250 1350 1450 1550> 0 21G<0 200 200 400 450 550 650 750 850 950 1050 1150 1250 1350 1450 1550> 180 20G<0 200 200 400 450 550 650 750 850 950 1050 1150 1250 1350 1450 1550> 180 20G<0 200 200 400 450 550 650 750 850 950 1050 1150 1250 1350 1450 1550>
VStem: 0 200<0 200> 200 200<0 200> 450 100<0 200> 650 100<0 200> 850 100<0 200> 1050 100<0 200> 1250 100<0 200> 1450 100<0 200>
LayerCount: 2
Fore
SplineSet
0 200 m 1xabf0
 200 200 l 1
 200 0 l 1
 0 0 l 1
 0 200 l 1xabf0
450 200 m 1
 550 200 l 1
 550 0 l 1
 450 0 l 1
 450 200 l 1
200 200 m 1
 400 200 l 1
 400 0 l 1xa7f0
 200 0 l 1
 200 200 l 1
650 200 m 1
 750 200 l 1
 750 0 l 1
 650 0 l 1
 650 200 l 1
850 200 m 1
 950 200 l 1
 950 0 l 1
 850 0 l 1
 850 200 l 1
1050 200 m 1
 1150 200 l 1
 1150 0 l 1
 1050 0 l 1
 1050 200 l 1
1250 200 m 1
 1350 200 l 1
 1350 0 l 1
 1250 0 l 1
 1250 200 l 1
1450 200 m 5
 1550 200 l 5
 1550 0 l 5
 1450 0 l 5
 1450 200 l 5
EndSplineSet
EndChar

StartChar: at
Encoding: 64 64 83
Width: 1600
VWidth: 800
Flags: W
HStem: 0 21G<0 200 250 350 400 600 600 800 800 1000 1000 1200 1200 1400 1400 1600> 0 21G<0 200 250 350 400 600 600 800 800 1000 1000 1200 1200 1400 1400 1600> 180 20G<0 200 250 350 400 600 600 800 800 1000 1000 1200 1200 1400 1400 1600> 180 20G<0 200 250 350 400 600 600 800 800 1000 1000 1200 1200 1400 1400 1600>
VStem: 0 200<0 200> 250 100<0 200>
LayerCount: 2
Fore
SplineSet
0 200 m 1xac
 200 200 l 1
 200 0 l 1
 0 0 l 1
 0 200 l 1xac
400 200 m 1
 600 200 l 1
 600 0 l 1
 400 0 l 1
 400 200 l 1
250 200 m 1
 350 200 l 1
 350 0 l 1
 250 0 l 1
 250 200 l 1
600 200 m 1
 800 200 l 1
 800 0 l 1
 600 0 l 1
 600 200 l 1
800 200 m 1
 1000 200 l 1
 1000 0 l 1
 800 0 l 1
 800 200 l 1
1000 200 m 1
 1200 200 l 1
 1200 0 l 1
 1000 0 l 1
 1000 200 l 1
1200 200 m 1
 1400 200 l 1
 1400 0 l 1
 1200 0 l 1
 1200 200 l 1
1400 200 m 5
 1600 200 l 5
 1600 0 l 5
 1400 0 l 5
 1400 200 l 5
EndSplineSet
EndChar

StartChar: bracketleft
Encoding: 91 91 84
Width: 1600
VWidth: 800
Flags: W
HStem: 0 21G<0 200 250 350 400 600 650 750 850 950 1000 1200 1250 1350 1450 1550> 0 21G<0 200 250 350 400 600 650 750 850 950 1000 1200 1250 1350 1450 1550> 180 20G<0 200 250 350 400 600 650 750 850 950 1000 1200 1250 1350 1450 1550> 180 20G<0 200 250 350 400 600 650 750 850 950 1000 1200 1250 1350 1450 1550>
VStem: 0 200<0 200> 250 100<0 200> 400 200<0 200> 650 100<0 200> 850 100<0 200> 1000 200<0 200> 1250 100<0 200> 1450 100<0 200>
LayerCount: 2
Fore
SplineSet
0 200 m 1xaff0
 200 200 l 1
 200 0 l 1
 0 0 l 1
 0 200 l 1xaff0
400 200 m 1
 600 200 l 1
 600 0 l 1
 400 0 l 1
 400 200 l 1
250 200 m 1
 350 200 l 1
 350 0 l 1
 250 0 l 1
 250 200 l 1
650 200 m 1
 750 200 l 1
 750 0 l 1
 650 0 l 1
 650 200 l 1
1000 200 m 1
 1200 200 l 1
 1200 0 l 1
 1000 0 l 1
 1000 200 l 1
850 200 m 1
 950 200 l 1
 950 0 l 1
 850 0 l 1
 850 200 l 1
1250 200 m 1
 1350 200 l 1
 1350 0 l 1
 1250 0 l 1
 1250 200 l 1
1450 200 m 5
 1550 200 l 5
 1550 0 l 5
 1450 0 l 5
 1450 200 l 5
EndSplineSet
EndChar

StartChar: backslash
Encoding: 92 92 85
Width: 1600
VWidth: 800
Flags: W
HStem: 0 21G<0 200 250 350 400 600 650 750 850 950 1050 1150 1200 1400 1400 1600> 0 21G<0 200 250 350 400 600 650 750 850 950 1050 1150 1200 1400 1400 1600> 180 20G<0 200 250 350 400 600 650 750 850 950 1050 1150 1200 1400 1400 1600> 180 20G<0 200 250 350 400 600 650 750 850 950 1050 1150 1200 1400 1400 1600>
VStem: 0 200<0 200> 250 100<0 200> 400 200<0 200> 650 100<0 200> 850 100<0 200> 1050 100<0 200>
LayerCount: 2
Fore
SplineSet
0 200 m 1xafc0
 200 200 l 1
 200 0 l 1
 0 0 l 1
 0 200 l 1xafc0
400 200 m 1
 600 200 l 1
 600 0 l 1
 400 0 l 1
 400 200 l 1
250 200 m 1
 350 200 l 1
 350 0 l 1
 250 0 l 1
 250 200 l 1
650 200 m 1
 750 200 l 1
 750 0 l 1
 650 0 l 1
 650 200 l 1
850 200 m 1
 950 200 l 1
 950 0 l 1
 850 0 l 1
 850 200 l 1
1200 200 m 5
 1400 200 l 5
 1400 0 l 5
 1200 0 l 5
 1200 200 l 5
1050 200 m 1
 1150 200 l 1
 1150 0 l 1
 1050 0 l 1
 1050 200 l 1
1400 200 m 5
 1600 200 l 5
 1600 0 l 5
 1400 0 l 5
 1400 200 l 5
EndSplineSet
EndChar

StartChar: bracketright
Encoding: 93 93 86
Width: 1600
VWidth: 800
Flags: W
HStem: 0 21G<0 200 250 350 400 600 650 750 850 950 1050 1150 1200 1400 1450 1550> 0 21G<0 200 250 350 400 600 650 750 850 950 1050 1150 1200 1400 1450 1550> 180 20G<0 200 250 350 400 600 650 750 850 950 1050 1150 1200 1400 1450 1550> 180 20G<0 200 250 350 400 600 650 750 850 950 1050 1150 1200 1400 1450 1550>
VStem: 0 200<0 200> 250 100<0 200> 400 200<0 200> 650 100<0 200> 850 100<0 200> 1050 100<0 200> 1200 200<0 200> 1450 100<0 200>
LayerCount: 2
Fore
SplineSet
0 200 m 1xaff0
 200 200 l 1
 200 0 l 1
 0 0 l 1
 0 200 l 1xaff0
400 200 m 1
 600 200 l 1
 600 0 l 1
 400 0 l 1
 400 200 l 1
250 200 m 1
 350 200 l 1
 350 0 l 1
 250 0 l 1
 250 200 l 1
650 200 m 1
 750 200 l 1
 750 0 l 1
 650 0 l 1
 650 200 l 1
850 200 m 1
 950 200 l 1
 950 0 l 1
 850 0 l 1
 850 200 l 1
1200 200 m 1
 1400 200 l 1
 1400 0 l 1
 1200 0 l 1
 1200 200 l 1
1050 200 m 1
 1150 200 l 1
 1150 0 l 1
 1050 0 l 1
 1050 200 l 1
1450 200 m 5
 1550 200 l 5
 1550 0 l 5
 1450 0 l 5
 1450 200 l 5
EndSplineSet
EndChar

StartChar: asciicircum
Encoding: 94 94 87
Width: 1600
VWidth: 800
Flags: W
HStem: 0 21G<0 200 250 350 400 600 650 750 850 950 1050 1150 1250 1350 1400 1600> 0 21G<0 200 250 350 400 600 650 750 850 950 1050 1150 1250 1350 1400 1600> 180 20G<0 200 250 350 400 600 650 750 850 950 1050 1150 1250 1350 1400 1600> 180 20G<0 200 250 350 400 600 650 750 850 950 1050 1150 1250 1350 1400 1600>
VStem: 0 200<0 200> 250 100<0 200> 400 200<0 200> 650 100<0 200> 850 100<0 200> 1050 100<0 200> 1250 100<0 200> 1400 200<0 200>
LayerCount: 2
Fore
SplineSet
0 200 m 1xaff0
 200 200 l 1
 200 0 l 1
 0 0 l 1
 0 200 l 1xaff0
400 200 m 1
 600 200 l 1
 600 0 l 1
 400 0 l 1
 400 200 l 1
250 200 m 1
 350 200 l 1
 350 0 l 1
 250 0 l 1
 250 200 l 1
650 200 m 1
 750 200 l 1
 750 0 l 1
 650 0 l 1
 650 200 l 1
850 200 m 1
 950 200 l 1
 950 0 l 1
 850 0 l 1
 850 200 l 1
1400 200 m 1
 1600 200 l 1
 1600 0 l 1
 1400 0 l 1
 1400 200 l 1
1050 200 m 1
 1150 200 l 1
 1150 0 l 1
 1050 0 l 1
 1050 200 l 1
1250 200 m 5
 1350 200 l 5
 1350 0 l 5
 1250 0 l 5
 1250 200 l 5
EndSplineSet
EndChar

StartChar: underscore
Encoding: 95 95 88
Width: 1600
VWidth: 800
Flags: W
HStem: 0 21G<0 200 250 350 400 600 650 750 850 950 1050 1150 1250 1350 1450 1550> 0 21G<0 200 250 350 400 600 650 750 850 950 1050 1150 1250 1350 1450 1550> 180 20G<0 200 250 350 400 600 650 750 850 950 1050 1150 1250 1350 1450 1550> 180 20G<0 200 250 350 400 600 650 750 850 950 1050 1150 1250 1350 1450 1550>
VStem: 0 200<0 200> 250 100<0 200> 400 200<0 200> 650 100<0 200> 850 100<0 200> 1050 100<0 200> 1250 100<0 200> 1450 100<0 200>
LayerCount: 2
Fore
SplineSet
0 200 m 1xaff0
 200 200 l 1
 200 0 l 1
 0 0 l 1
 0 200 l 1xaff0
400 200 m 1
 600 200 l 1
 600 0 l 1
 400 0 l 1
 400 200 l 1
250 200 m 1
 350 200 l 1
 350 0 l 1
 250 0 l 1
 250 200 l 1
650 200 m 1
 750 200 l 1
 750 0 l 1
 650 0 l 1
 650 200 l 1
850 200 m 1
 950 200 l 1
 950 0 l 1
 850 0 l 1
 850 200 l 1
1050 200 m 1
 1150 200 l 1
 1150 0 l 1
 1050 0 l 1
 1050 200 l 1
1250 200 m 1
 1350 200 l 1
 1350 0 l 1
 1250 0 l 1
 1250 200 l 1
1450 200 m 5
 1550 200 l 5
 1550 0 l 5
 1450 0 l 5
 1450 200 l 5
EndSplineSet
EndChar

StartChar: grave
Encoding: 96 96 89
Width: 1600
VWidth: 800
Flags: W
HStem: 0 21G<0 200 250 350 450 550 600 800 800 1000 1000 1200 1200 1400 1400 1600> 0 21G<0 200 250 350 450 550 600 800 800 1000 1000 1200 1200 1400 1400 1600> 180 20G<0 200 250 350 450 550 600 800 800 1000 1000 1200 1200 1400 1400 1600> 180 20G<0 200 250 350 450 550 600 800 800 1000 1000 1200 1200 1400 1400 1600>
VStem: 0 200<0 200> 250 100<0 200> 450 100<0 200>
LayerCount: 2
Fore
SplineSet
0 200 m 1xae
 200 200 l 1
 200 0 l 1
 0 0 l 1
 0 200 l 1xae
250 200 m 1
 350 200 l 1
 350 0 l 1
 250 0 l 1
 250 200 l 1
600 200 m 5
 800 200 l 5
 800 0 l 5
 600 0 l 5
 600 200 l 5
450 200 m 1
 550 200 l 1
 550 0 l 1
 450 0 l 1
 450 200 l 1
800 200 m 5
 1000 200 l 5
 1000 0 l 5
 800 0 l 5
 800 200 l 5
1000 200 m 5
 1200 200 l 5
 1200 0 l 5
 1000 0 l 5
 1000 200 l 5
1200 200 m 5
 1400 200 l 5
 1400 0 l 5
 1200 0 l 5
 1200 200 l 5
1400 200 m 5
 1600 200 l 5
 1600 0 l 5
 1400 0 l 5
 1400 200 l 5
EndSplineSet
EndChar

StartChar: braceleft
Encoding: 123 123 90
Width: 1600
VWidth: 800
Flags: W
HStem: 0 21G<0 200 250 350 450 550 650 750 850 950 1000 1200 1250 1350 1450 1550> 0 21G<0 200 250 350 450 550 650 750 850 950 1000 1200 1250 1350 1450 1550> 180 20G<0 200 250 350 450 550 650 750 850 950 1000 1200 1250 1350 1450 1550> 180 20G<0 200 250 350 450 550 650 750 850 950 1000 1200 1250 1350 1450 1550>
VStem: 0 200<0 200> 250 100<0 200> 450 100<0 200> 650 100<0 200> 850 100<0 200> 1000 200<0 200> 1250 100<0 200> 1450 100<0 200>
LayerCount: 2
Fore
SplineSet
0 200 m 1xaff0
 200 200 l 1
 200 0 l 1
 0 0 l 1
 0 200 l 1xaff0
250 200 m 1
 350 200 l 1
 350 0 l 1
 250 0 l 1
 250 200 l 1
450 200 m 1
 550 200 l 1
 550 0 l 1
 450 0 l 1
 450 200 l 1
650 200 m 1
 750 200 l 1
 750 0 l 1
 650 0 l 1
 650 200 l 1
850 200 m 1
 950 200 l 1
 950 0 l 1
 850 0 l 1
 850 200 l 1
1000 200 m 1
 1200 200 l 1
 1200 0 l 1
 1000 0 l 1
 1000 200 l 1
1250 200 m 1
 1350 200 l 1
 1350 0 l 1
 1250 0 l 1
 1250 200 l 1
1450 200 m 5
 1550 200 l 5
 1550 0 l 5
 1450 0 l 5
 1450 200 l 5
EndSplineSet
EndChar

StartChar: bar
Encoding: 124 124 91
Width: 1600
VWidth: 800
Flags: W
HStem: 0 21G<0 200 250 350 450 550 650 750 850 950 1050 1150 1200 1400 1400 1600> 0 21G<0 200 250 350 450 550 650 750 850 950 1050 1150 1200 1400 1400 1600> 180 20G<0 200 250 350 450 550 650 750 850 950 1050 1150 1200 1400 1400 1600> 180 20G<0 200 250 350 450 550 650 750 850 950 1050 1150 1200 1400 1400 1600>
VStem: 0 200<0 200> 250 100<0 200> 450 100<0 200> 650 100<0 200> 850 100<0 200> 1050 100<0 200>
LayerCount: 2
Fore
SplineSet
0 200 m 1xafc0
 200 200 l 1
 200 0 l 1
 0 0 l 1
 0 200 l 1xafc0
250 200 m 1
 350 200 l 1
 350 0 l 1
 250 0 l 1
 250 200 l 1
450 200 m 1
 550 200 l 1
 550 0 l 1
 450 0 l 1
 450 200 l 1
650 200 m 1
 750 200 l 1
 750 0 l 1
 650 0 l 1
 650 200 l 1
850 200 m 1
 950 200 l 1
 950 0 l 1
 850 0 l 1
 850 200 l 1
1200 200 m 5
 1400 200 l 5
 1400 0 l 5
 1200 0 l 5
 1200 200 l 5
1050 200 m 1
 1150 200 l 1
 1150 0 l 1
 1050 0 l 1
 1050 200 l 1
1400 200 m 5
 1600 200 l 5
 1600 0 l 5
 1400 0 l 5
 1400 200 l 5
EndSplineSet
EndChar

StartChar: braceright
Encoding: 125 125 92
Width: 1600
VWidth: 800
Flags: W
HStem: 0 21G<0 200 250 350 450 550 650 750 850 950 1050 1150 1200 1400 1450 1550> 0 21G<0 200 250 350 450 550 650 750 850 950 1050 1150 1200 1400 1450 1550> 180 20G<0 200 250 350 450 550 650 750 850 950 1050 1150 1200 1400 1450 1550> 180 20G<0 200 250 350 450 550 650 750 850 950 1050 1150 1200 1400 1450 1550>
VStem: 0 200<0 200> 250 100<0 200> 450 100<0 200> 650 100<0 200> 850 100<0 200> 1050 100<0 200> 1200 200<0 200> 1450 100<0 200>
LayerCount: 2
Fore
SplineSet
0 200 m 1xaff0
 200 200 l 1
 200 0 l 1
 0 0 l 1
 0 200 l 1xaff0
250 200 m 1
 350 200 l 1
 350 0 l 1
 250 0 l 1
 250 200 l 1
450 200 m 1
 550 200 l 1
 550 0 l 1
 450 0 l 1
 450 200 l 1
650 200 m 1
 750 200 l 1
 750 0 l 1
 650 0 l 1
 650 200 l 1
850 200 m 1
 950 200 l 1
 950 0 l 1
 850 0 l 1
 850 200 l 1
1200 200 m 1
 1400 200 l 1
 1400 0 l 1
 1200 0 l 1
 1200 200 l 1
1050 200 m 1
 1150 200 l 1
 1150 0 l 1
 1050 0 l 1
 1050 200 l 1
1450 200 m 5
 1550 200 l 5
 1550 0 l 5
 1450 0 l 5
 1450 200 l 5
EndSplineSet
EndChar

StartChar: asciitilde
Encoding: 126 126 93
Width: 1600
VWidth: 800
Flags: W
HStem: 0 21G<0 200 250 350 450 550 650 750 850 950 1050 1150 1250 1350 1400 1600> 0 21G<0 200 250 350 450 550 650 750 850 950 1050 1150 1250 1350 1400 1600> 180 20G<0 200 250 350 450 550 650 750 850 950 1050 1150 1250 1350 1400 1600> 180 20G<0 200 250 350 450 550 650 750 850 950 1050 1150 1250 1350 1400 1600>
VStem: 0 200<0 200> 250 100<0 200> 450 100<0 200> 650 100<0 200> 850 100<0 200> 1050 100<0 200> 1250 100<0 200> 1400 200<0 200>
LayerCount: 2
Fore
SplineSet
0 200 m 1xaff0
 200 200 l 1
 200 0 l 1
 0 0 l 1
 0 200 l 1xaff0
250 200 m 1
 350 200 l 1
 350 0 l 1
 250 0 l 1
 250 200 l 1
450 200 m 1
 550 200 l 1
 550 0 l 1
 450 0 l 1
 450 200 l 1
650 200 m 1
 750 200 l 1
 750 0 l 1
 650 0 l 1
 650 200 l 1
850 200 m 1
 950 200 l 1
 950 0 l 1
 850 0 l 1
 850 200 l 1
1400 200 m 5
 1600 200 l 5
 1600 0 l 5
 1400 0 l 5
 1400 200 l 5
1050 200 m 1
 1150 200 l 1
 1150 0 l 1
 1050 0 l 1
 1050 200 l 1
1250 200 m 1
 1350 200 l 1
 1350 0 l 1
 1250 0 l 1
 1250 200 l 1
EndSplineSet
EndChar

StartChar: quotedblleft
Encoding: 8220 8220 94
Width: 1600
VWidth: 800
Flags: W
HStem: 0 21G<0 200 200 400 450 550 600 800 800 1000 1000 1200 1250 1350 1400 1600> 0 21G<0 200 200 400 450 550 600 800 800 1000 1000 1200 1250 1350 1400 1600> 180 20G<0 200 200 400 450 550 600 800 800 1000 1000 1200 1250 1350 1400 1600> 180 20G<0 200 200 400 450 550 600 800 800 1000 1000 1200 1250 1350 1400 1600>
VStem: 450 100<0 200> 600 200<0 200> 1250 100<0 200> 1400 200<0 200>
LayerCount: 2
Fore
SplineSet
0 200 m 1xaf
 200 200 l 1
 200 0 l 1
 0 0 l 1
 0 200 l 1xaf
450 200 m 1
 550 200 l 1
 550 0 l 1
 450 0 l 1
 450 200 l 1
200 200 m 1
 400 200 l 1
 400 0 l 1
 200 0 l 1
 200 200 l 1
800 200 m 1
 1000 200 l 1
 1000 0 l 1
 800 0 l 1
 800 200 l 1
1000 200 m 1
 1200 200 l 1
 1200 0 l 1
 1000 0 l 1
 1000 200 l 1
600 200 m 1
 800 200 l 1
 800 0 l 1
 600 0 l 1
 600 200 l 1
1400 200 m 5
 1600 200 l 5
 1600 0 l 5
 1400 0 l 5
 1400 200 l 5
1250 200 m 1
 1350 200 l 1
 1350 0 l 1
 1250 0 l 1
 1250 200 l 1
EndSplineSet
EndChar

StartChar: quotedblright
Encoding: 8221 8221 95
Width: 1600
VWidth: 800
Flags: W
HStem: 0 21G<0 200 200 400 450 550 600 800 800 1000 1000 1200 1250 1350 1400 1600> 0 21G<0 200 200 400 450 550 600 800 800 1000 1000 1200 1250 1350 1400 1600> 180 20G<0 200 200 400 450 550 600 800 800 1000 1000 1200 1250 1350 1400 1600> 180 20G<0 200 200 400 450 550 600 800 800 1000 1000 1200 1250 1350 1400 1600>
VStem: 450 100<0 200> 600 200<0 200> 1250 100<0 200> 1400 200<0 200>
LayerCount: 2
Fore
SplineSet
0 200 m 1xaf
 200 200 l 1
 200 0 l 1
 0 0 l 1
 0 200 l 1xaf
450 200 m 1
 550 200 l 1
 550 0 l 1
 450 0 l 1
 450 200 l 1
200 200 m 1
 400 200 l 1
 400 0 l 1
 200 0 l 1
 200 200 l 1
800 200 m 1
 1000 200 l 1
 1000 0 l 1
 800 0 l 1
 800 200 l 1
1000 200 m 1
 1200 200 l 1
 1200 0 l 1
 1000 0 l 1
 1000 200 l 1
600 200 m 1
 800 200 l 1
 800 0 l 1
 600 0 l 1
 600 200 l 1
1400 200 m 5
 1600 200 l 5
 1600 0 l 5
 1400 0 l 5
 1400 200 l 5
1250 200 m 1
 1350 200 l 1
 1350 0 l 1
 1250 0 l 1
 1250 200 l 1
EndSplineSet
EndChar

StartChar: quotedblbase
Encoding: 8222 8222 96
Width: 1600
VWidth: 800
Flags: W
HStem: 0 21G<0 200 200 400 450 550 600 800 800 1000 1000 1200 1250 1350 1400 1600> 0 21G<0 200 200 400 450 550 600 800 800 1000 1000 1200 1250 1350 1400 1600> 180 20G<0 200 200 400 450 550 600 800 800 1000 1000 1200 1250 1350 1400 1600> 180 20G<0 200 200 400 450 550 600 800 800 1000 1000 1200 1250 1350 1400 1600>
VStem: 450 100<0 200> 600 200<0 200> 1250 100<0 200> 1400 200<0 200>
LayerCount: 2
Fore
SplineSet
0 200 m 1xaf
 200 200 l 1
 200 0 l 1
 0 0 l 1
 0 200 l 1xaf
450 200 m 1
 550 200 l 1
 550 0 l 1
 450 0 l 1
 450 200 l 1
200 200 m 1
 400 200 l 1
 400 0 l 1
 200 0 l 1
 200 200 l 1
800 200 m 1
 1000 200 l 1
 1000 0 l 1
 800 0 l 1
 800 200 l 1
1000 200 m 1
 1200 200 l 1
 1200 0 l 1
 1000 0 l 1
 1000 200 l 1
600 200 m 1
 800 200 l 1
 800 0 l 1
 600 0 l 1
 600 200 l 1
1400 200 m 5
 1600 200 l 5
 1600 0 l 5
 1400 0 l 5
 1400 200 l 5
1250 200 m 1
 1350 200 l 1
 1350 0 l 1
 1250 0 l 1
 1250 200 l 1
EndSplineSet
EndChar

StartChar: uni201F
Encoding: 8223 8223 97
Width: 1600
VWidth: 800
Flags: W
HStem: 0 21G<0 200 200 400 450 550 600 800 800 1000 1000 1200 1250 1350 1400 1600> 0 21G<0 200 200 400 450 550 600 800 800 1000 1000 1200 1250 1350 1400 1600> 180 20G<0 200 200 400 450 550 600 800 800 1000 1000 1200 1250 1350 1400 1600> 180 20G<0 200 200 400 450 550 600 800 800 1000 1000 1200 1250 1350 1400 1600>
VStem: 450 100<0 200> 600 200<0 200> 1250 100<0 200> 1400 200<0 200>
LayerCount: 2
Fore
SplineSet
0 200 m 1xaf
 200 200 l 1
 200 0 l 1
 0 0 l 1
 0 200 l 1xaf
450 200 m 1
 550 200 l 1
 550 0 l 1
 450 0 l 1
 450 200 l 1
200 200 m 1
 400 200 l 1
 400 0 l 1
 200 0 l 1
 200 200 l 1
800 200 m 1
 1000 200 l 1
 1000 0 l 1
 800 0 l 1
 800 200 l 1
1000 200 m 1
 1200 200 l 1
 1200 0 l 1
 1000 0 l 1
 1000 200 l 1
600 200 m 1
 800 200 l 1
 800 0 l 1
 600 0 l 1
 600 200 l 1
1400 200 m 5
 1600 200 l 5
 1600 0 l 5
 1400 0 l 5
 1400 200 l 5
1250 200 m 1
 1350 200 l 1
 1350 0 l 1
 1250 0 l 1
 1250 200 l 1
EndSplineSet
EndChar

StartChar: quoteleft
Encoding: 8216 8216 98
Width: 1600
VWidth: 800
Flags: W
HStem: 0 21G<0 200 200 400 450 550 600 800 800 1000 1050 1150 1250 1350 1450 1550> 0 21G<0 200 200 400 450 550 600 800 800 1000 1050 1150 1250 1350 1450 1550> 180 20G<0 200 200 400 450 550 600 800 800 1000 1050 1150 1250 1350 1450 1550> 180 20G<0 200 200 400 450 550 600 800 800 1000 1050 1150 1250 1350 1450 1550>
VStem: 450 100<0 200> 1050 100<0 200> 1250 100<0 200> 1450 100<0 200>
LayerCount: 2
Fore
SplineSet
0 200 m 1xaf
 200 200 l 1
 200 0 l 1
 0 0 l 1
 0 200 l 1xaf
450 200 m 1
 550 200 l 1
 550 0 l 1
 450 0 l 1
 450 200 l 1
200 200 m 1
 400 200 l 1
 400 0 l 1
 200 0 l 1
 200 200 l 1
800 200 m 1
 1000 200 l 1
 1000 0 l 1
 800 0 l 1
 800 200 l 1
600 200 m 1
 800 200 l 1
 800 0 l 1
 600 0 l 1
 600 200 l 1
1050 200 m 1
 1150 200 l 1
 1150 0 l 1
 1050 0 l 1
 1050 200 l 1
1250 200 m 1
 1350 200 l 1
 1350 0 l 1
 1250 0 l 1
 1250 200 l 1
1450 200 m 5
 1550 200 l 5
 1550 0 l 5
 1450 0 l 5
 1450 200 l 5
EndSplineSet
EndChar

StartChar: quoteright
Encoding: 8217 8217 99
Width: 1600
VWidth: 800
Flags: W
HStem: 0 21G<0 200 200 400 450 550 600 800 800 1000 1050 1150 1250 1350 1450 1550> 0 21G<0 200 200 400 450 550 600 800 800 1000 1050 1150 1250 1350 1450 1550> 180 20G<0 200 200 400 450 550 600 800 800 1000 1050 1150 1250 1350 1450 1550> 180 20G<0 200 200 400 450 550 600 800 800 1000 1050 1150 1250 1350 1450 1550>
VStem: 450 100<0 200> 1050 100<0 200> 1250 100<0 200> 1450 100<0 200>
LayerCount: 2
Fore
SplineSet
0 200 m 1xaf
 200 200 l 1
 200 0 l 1
 0 0 l 1
 0 200 l 1xaf
450 200 m 1
 550 200 l 1
 550 0 l 1
 450 0 l 1
 450 200 l 1
200 200 m 1
 400 200 l 1
 400 0 l 1
 200 0 l 1
 200 200 l 1
800 200 m 1
 1000 200 l 1
 1000 0 l 1
 800 0 l 1
 800 200 l 1
600 200 m 1
 800 200 l 1
 800 0 l 1
 600 0 l 1
 600 200 l 1
1050 200 m 1
 1150 200 l 1
 1150 0 l 1
 1050 0 l 1
 1050 200 l 1
1250 200 m 1
 1350 200 l 1
 1350 0 l 1
 1250 0 l 1
 1250 200 l 1
1450 200 m 5
 1550 200 l 5
 1550 0 l 5
 1450 0 l 5
 1450 200 l 5
EndSplineSet
EndChar

StartChar: quotesinglbase
Encoding: 8218 8218 100
Width: 1600
VWidth: 800
Flags: W
HStem: 0 21G<0 200 200 400 450 550 600 800 800 1000 1050 1150 1250 1350 1450 1550> 0 21G<0 200 200 400 450 550 600 800 800 1000 1050 1150 1250 1350 1450 1550> 180 20G<0 200 200 400 450 550 600 800 800 1000 1050 1150 1250 1350 1450 1550> 180 20G<0 200 200 400 450 550 600 800 800 1000 1050 1150 1250 1350 1450 1550>
VStem: 450 100<0 200> 1050 100<0 200> 1250 100<0 200> 1450 100<0 200>
LayerCount: 2
Fore
SplineSet
0 200 m 1xaf
 200 200 l 1
 200 0 l 1
 0 0 l 1
 0 200 l 1xaf
450 200 m 1
 550 200 l 1
 550 0 l 1
 450 0 l 1
 450 200 l 1
200 200 m 1
 400 200 l 1
 400 0 l 1
 200 0 l 1
 200 200 l 1
800 200 m 1
 1000 200 l 1
 1000 0 l 1
 800 0 l 1
 800 200 l 1
600 200 m 1
 800 200 l 1
 800 0 l 1
 600 0 l 1
 600 200 l 1
1050 200 m 1
 1150 200 l 1
 1150 0 l 1
 1050 0 l 1
 1050 200 l 1
1250 200 m 1
 1350 200 l 1
 1350 0 l 1
 1250 0 l 1
 1250 200 l 1
1450 200 m 5
 1550 200 l 5
 1550 0 l 5
 1450 0 l 5
 1450 200 l 5
EndSplineSet
EndChar

StartChar: quotereversed
Encoding: 8219 8219 101
Width: 1600
VWidth: 800
Flags: W
HStem: 0 21G<0 200 200 400 450 550 600 800 800 1000 1050 1150 1250 1350 1450 1550> 0 21G<0 200 200 400 450 550 600 800 800 1000 1050 1150 1250 1350 1450 1550> 180 20G<0 200 200 400 450 550 600 800 800 1000 1050 1150 1250 1350 1450 1550> 180 20G<0 200 200 400 450 550 600 800 800 1000 1050 1150 1250 1350 1450 1550>
VStem: 450 100<0 200> 1050 100<0 200> 1250 100<0 200> 1450 100<0 200>
LayerCount: 2
Fore
SplineSet
0 200 m 1xaf
 200 200 l 1
 200 0 l 1
 0 0 l 1
 0 200 l 1xaf
450 200 m 1
 550 200 l 1
 550 0 l 1
 450 0 l 1
 450 200 l 1
200 200 m 1
 400 200 l 1
 400 0 l 1
 200 0 l 1
 200 200 l 1
800 200 m 1
 1000 200 l 1
 1000 0 l 1
 800 0 l 1
 800 200 l 1
600 200 m 1
 800 200 l 1
 800 0 l 1
 600 0 l 1
 600 200 l 1
1050 200 m 1
 1150 200 l 1
 1150 0 l 1
 1050 0 l 1
 1050 200 l 1
1250 200 m 1
 1350 200 l 1
 1350 0 l 1
 1250 0 l 1
 1250 200 l 1
1450 200 m 1
 1550 200 l 1
 1550 0 l 1
 1450 0 l 1
 1450 200 l 1
EndSplineSet
EndChar

